STARTFONT 2.3
FONT -FontForge-Monoton-Book-R-Normal--14-140-72-72-P-95-ISO10646-1
SIZE 14 72 72  2
FONTBOUNDINGBOX 26 23 -2 -6
COMMENT "Generated by fontforge, http://fontforge.sourceforge.net"
COMMENT "Copyright (c) 2011 by vernon adams. All rights reserved."
STARTPROPERTIES 41
FOUNDRY "FontForge"
FAMILY_NAME "Monoton"
WEIGHT_NAME "Book"
SLANT "R"
SETWIDTH_NAME "Normal"
ADD_STYLE_NAME ""
PIXEL_SIZE 14
POINT_SIZE 140
RESOLUTION_X 72
RESOLUTION_Y 72
SPACING "P"
AVERAGE_WIDTH 95
CHARSET_REGISTRY "ISO10646"
CHARSET_ENCODING "1"
FONTNAME_REGISTRY ""
CHARSET_COLLECTIONS "ISO8859-2 ISO8859-9 ISO8859-4 ISO10646-1"
BITS_PER_PIXEL 2
FONT_NAME "Monoton-Regular"
FACE_NAME "Monoton"
COPYRIGHT "Copyright (c) 2011 by vernon adams. All rights reserved."
FONT_VERSION "1.000"
FONT_ASCENT 11
FONT_DESCENT 3
UNDERLINE_POSITION -1
UNDERLINE_THICKNESS 1
X_HEIGHT 9
CAP_HEIGHT 11
DEFAULT_CHAR 1
RAW_ASCENT 799
RAW_DESCENT 200
NORM_SPACE 2
RELATIVE_WEIGHT 40
RELATIVE_SETWIDTH 50
SUPERSCRIPT_X 0
SUPERSCRIPT_Y 4
SUPERSCRIPT_SIZE 8
SUBSCRIPT_X 0
SUBSCRIPT_Y 1
SUBSCRIPT_SIZE 8
AVG_LOWERCASE_WIDTH 102
AVG_UPPERCASE_WIDTH 111
ENDPROPERTIES
CHARS 372
STARTCHAR glyph1.dup1
ENCODING 0
SWIDTH 108 0
DWIDTH 2 0
BBX 1 1 0 0
BITMAP
00
ENDCHAR
STARTCHAR uni0002
ENCODING 2
SWIDTH 108 0
DWIDTH 2 0
BBX 1 1 0 0
BITMAP
00
ENDCHAR
STARTCHAR uni0009
ENCODING 9
SWIDTH 108 0
DWIDTH 2 0
BBX 1 1 0 0
BITMAP
00
ENDCHAR
STARTCHAR uni000A
ENCODING 10
SWIDTH 108 0
DWIDTH 2 0
BBX 1 1 0 0
BITMAP
00
ENDCHAR
STARTCHAR uni000D
ENCODING 13
SWIDTH 108 0
DWIDTH 2 0
BBX 1 1 0 0
BITMAP
00
ENDCHAR
STARTCHAR space
ENCODING 32
SWIDTH 108 0
DWIDTH 2 0
BBX 1 1 0 0
BITMAP
00
ENDCHAR
STARTCHAR exclam
ENCODING 33
SWIDTH 336 0
DWIDTH 5 0
BBX 4 13 0 -1
BITMAP
15
6A
6A
6A
6A
6A
6A
6A
6A
00
55
55
6A
ENDCHAR
STARTCHAR quotedbl
ENCODING 34
SWIDTH 538 0
DWIDTH 8 0
BBX 7 4 0 7
BITMAP
68A8
68A8
68A8
68A8
ENDCHAR
STARTCHAR numbersign
ENCODING 35
SWIDTH 1014 0
DWIDTH 14 0
BBX 14 13 0 -1
BITMAP
00150540
00551500
05996A50
05A96650
05595650
01505400
0260A800
02A09800
25695A40
695A5600
5996A500
0A826000
05415000
ENDCHAR
STARTCHAR dollar
ENCODING 36
SWIDTH 686 0
DWIDTH 10 0
BBX 9 15 0 -2
BITMAP
015000
055500
155980
1A5540
655400
595400
569600
26A940
0A9A80
001640
065A40
165580
255600
015400
016000
ENDCHAR
STARTCHAR percent
ENCODING 37
SWIDTH 1504 0
DWIDTH 21 0
BBX 21 13 0 -1
BITMAP
066400000000
165505800000
19590A800000
55954A800000
662556466400
559556166500
19592A196940
155519559540
0150596A2540
000058565540
0000A8295900
000064095500
000154015000
ENDCHAR
STARTCHAR ampersand
ENCODING 38
SWIDTH 1029 0
DWIDTH 14 0
BBX 14 12 0 0
BITMAP
00550000
09A92A40
26A92A40
56A92A40
6A402A40
59AA6AA0
1AAA6A90
69956AA0
69555590
6AAA6990
26AA5690
06AA4690
ENDCHAR
STARTCHAR quotesingle
ENCODING 39
SWIDTH 257 0
DWIDTH 4 0
BBX 3 4 0 7
BITMAP
68
68
68
68
ENDCHAR
STARTCHAR parenleft
ENCODING 40
SWIDTH 410 0
DWIDTH 6 0
BBX 5 13 0 -1
BITMAP
0240
1A80
2940
5580
6A00
6A00
6A00
6A00
6A00
5580
2A40
1680
0640
ENDCHAR
STARTCHAR parenright
ENCODING 41
SWIDTH 408 0
DWIDTH 6 0
BBX 6 13 0 -1
BITMAP
5400
6600
5680
6A80
1A90
1A90
1A90
1A90
1A90
6640
6680
6A40
5800
ENDCHAR
STARTCHAR asterisk
ENCODING 42
SWIDTH 664 0
DWIDTH 9 0
BBX 9 9 0 1
BITMAP
015000
16A100
26A640
669940
19E600
599940
1AA900
12A100
015000
ENDCHAR
STARTCHAR plus
ENCODING 43
SWIDTH 601 0
DWIDTH 8 0
BBX 8 7 0 2
BITMAP
0550
06A0
5AA5
5AA5
5AA5
06A0
0550
ENDCHAR
STARTCHAR comma
ENCODING 44
SWIDTH 252 0
DWIDTH 4 0
BBX 3 5 0 -2
BITMAP
54
68
58
68
64
ENDCHAR
STARTCHAR hyphen
ENCODING 45
SWIDTH 473 0
DWIDTH 7 0
BBX 6 3 0 4
BITMAP
5550
5550
5550
ENDCHAR
STARTCHAR period
ENCODING 46
SWIDTH 255 0
DWIDTH 4 0
BBX 3 3 0 0
BITMAP
54
68
68
ENDCHAR
STARTCHAR slash
ENCODING 47
SWIDTH 447 0
DWIDTH 6 0
BBX 6 13 0 -2
BITMAP
02A0
0190
0590
0680
0A80
0640
1640
1A00
2A00
1900
5900
6800
1400
ENDCHAR
STARTCHAR zero
ENCODING 48
SWIDTH 843 0
DWIDTH 12 0
BBX 12 13 0 -1
BITMAP
015500
055590
166994
2A5968
554254
560195
550095
550155
558294
295658
1655A0
065580
005500
ENDCHAR
STARTCHAR one
ENCODING 49
SWIDTH 426 0
DWIDTH 6 0
BBX 6 12 0 0
BITMAP
5540
6A90
6A90
1A90
0A90
0A90
0A90
0A90
0A90
0A90
0A90
0A90
ENDCHAR
STARTCHAR two
ENCODING 50
SWIDTH 583 0
DWIDTH 8 0
BBX 8 12 0 0
BITMAP
6550
6A98
1595
256A
005A
0155
0668
0AA0
2A50
6A94
6AA8
6AA8
ENDCHAR
STARTCHAR three
ENCODING 51
SWIDTH 612 0
DWIDTH 9 0
BBX 8 13 0 -1
BITMAP
6550
6598
159A
15A9
05AA
06A9
0565
056A
0095
296A
6965
6958
1540
ENDCHAR
STARTCHAR four
ENCODING 52
SWIDTH 622 0
DWIDTH 9 0
BBX 9 12 0 0
BITMAP
010000
02A400
055800
0A9000
15A000
295500
5A8A00
6A9A00
6AAA40
6AAA40
000500
000A00
ENDCHAR
STARTCHAR five
ENCODING 53
SWIDTH 691 0
DWIDTH 10 0
BBX 10 13 0 -1
BITMAP
155500
2AAA00
2AAA00
690000
695400
695600
695580
555950
001690
065A40
165980
65A900
055000
ENDCHAR
STARTCHAR six
ENCODING 54
SWIDTH 781 0
DWIDTH 11 0
BBX 11 13 0 -1
BITMAP
015540
095A50
299540
565500
555500
555690
5555A0
555554
6542A8
5A5654
2659A0
0A5A80
005500
ENDCHAR
STARTCHAR seven
ENCODING 55
SWIDTH 631 0
DWIDTH 9 0
BBX 9 12 0 0
BITMAP
554000
6A5940
6A9900
00AA00
006A00
016500
016400
02A800
02A800
059400
069000
0AA000
ENDCHAR
STARTCHAR eight
ENCODING 56
SWIDTH 808 0
DWIDTH 11 0
BBX 11 13 0 -1
BITMAP
065540
155660
295554
5595A8
555664
56AA94
26A994
5AA958
550254
5655A8
295594
099590
016500
ENDCHAR
STARTCHAR nine
ENCODING 57
SWIDTH 782 0
DWIDTH 11 0
BBX 11 13 0 -1
BITMAP
015900
1A9580
2955A0
555664
A546A4
56A6A4
26A6A4
06A6A4
004564
019690
09AA50
195640
015400
ENDCHAR
STARTCHAR colon
ENCODING 58
SWIDTH 262 0
DWIDTH 4 0
BBX 3 7 0 2
BITMAP
14
68
68
00
54
68
68
ENDCHAR
STARTCHAR semicolon
ENCODING 59
SWIDTH 261 0
DWIDTH 4 0
BBX 3 9 0 0
BITMAP
14
68
68
00
54
68
58
64
64
ENDCHAR
STARTCHAR less
ENCODING 60
SWIDTH 670 0
DWIDTH 9 0
BBX 9 11 0 0
BITMAP
000140
001940
065940
665940
669900
65A000
695640
299640
019A40
001540
000040
ENDCHAR
STARTCHAR equal
ENCODING 61
SWIDTH 473 0
DWIDTH 7 0
BBX 6 7 0 2
BITMAP
1550
6AA0
6AA0
0000
5550
6AA0
6AA0
ENDCHAR
STARTCHAR greater
ENCODING 62
SWIDTH 670 0
DWIDTH 9 0
BBX 9 11 0 0
BITMAP
500000
564000
566400
5A6580
1A5A40
019640
299640
699640
599000
590000
400000
ENDCHAR
STARTCHAR question
ENCODING 63
SWIDTH 693 0
DWIDTH 10 0
BBX 10 12 0 0
BITMAP
055400
666A00
155680
056950
001590
1A5A80
1A6940
1A6900
1A1000
150000
1A0000
1A0000
ENDCHAR
STARTCHAR at
ENCODING 64
SWIDTH 1076 0
DWIDTH 15 0
BBX 15 14 0 -1
BITMAP
00054000
00AA5400
066A9940
16656650
29599690
55699554
54A6A898
54A86898
54A5A898
5A655654
29452560
1A694540
066A8000
006A9000
ENDCHAR
STARTCHAR A
ENCODING 65
SWIDTH 936 0
DWIDTH 13 0
BBX 13 11 0 0
BITMAP
00AA8000
00A94000
01555000
029AA000
05595400
0A52A800
0AA29400
15555500
2A95AA00
55959540
A5001A80
ENDCHAR
STARTCHAR B
ENCODING 66
SWIDTH 862 0
DWIDTH 12 0
BBX 12 12 0 0
BITMAP
155540
5AAA60
66AAA8
69AA95
6A4095
6A6955
6A6A95
6A5565
6A5559
6A6AA5
6A6A98
6A6A90
ENDCHAR
STARTCHAR C
ENCODING 67
SWIDTH 852 0
DWIDTH 12 0
BBX 12 13 0 -1
BITMAP
005540
065564
166665
295664
558040
550000
550000
550000
5A9090
299595
0995A8
025560
001500
ENDCHAR
STARTCHAR D
ENCODING 68
SWIDTH 886 0
DWIDTH 12 0
BBX 12 12 0 0
BITMAP
155500
5AA990
66AA94
69A9A5
6A415A
6A00AA
6A006A
6A00AA
6A5656
6AAA68
6AAA94
6AAA90
ENDCHAR
STARTCHAR E
ENCODING 69
SWIDTH 706 0
DWIDTH 10 0
BBX 9 12 0 0
BITMAP
005540
6AAA80
6AAA80
6A4000
6A0000
6A9400
6A9400
6A9400
6A0000
6A9540
6AAA80
6AAA80
ENDCHAR
STARTCHAR F
ENCODING 70
SWIDTH 683 0
DWIDTH 10 0
BBX 9 12 0 0
BITMAP
005540
6AAA80
6AAA80
6A4000
6A0000
6A5540
6AAA40
6AAA40
6A0000
6A0000
6A0000
6A0000
ENDCHAR
STARTCHAR G
ENCODING 71
SWIDTH 908 0
DWIDTH 13 0
BBX 12 13 0 -1
BITMAP
005540
065564
166665
295664
558040
550000
660055
69006A
5A90AA
2556AA
096AAA
0256AA
001540
ENDCHAR
STARTCHAR H
ENCODING 72
SWIDTH 901 0
DWIDTH 13 0
BBX 12 11 0 0
BITMAP
6A0055
6A0055
6A0055
6A0055
6A9595
6A9595
6A9595
6A0055
6A0055
6A0055
6A0055
ENDCHAR
STARTCHAR I
ENCODING 73
SWIDTH 338 0
DWIDTH 5 0
BBX 4 11 0 0
BITMAP
6A
6A
6A
6A
6A
6A
6A
6A
6A
6A
6A
ENDCHAR
STARTCHAR J
ENCODING 74
SWIDTH 434 0
DWIDTH 6 0
BBX 6 13 0 -1
BITMAP
0140
0A90
0A90
0A90
0A90
0A90
0A90
0A90
0A90
5A50
5580
5600
5400
ENDCHAR
STARTCHAR K
ENCODING 75
SWIDTH 815 0
DWIDTH 11 0
BBX 11 12 0 0
BITMAP
000154
6A0168
6A0A54
6A15A0
6A2940
6A5680
6A9540
6A2A80
6A1550
6A0AA0
6A0554
6A02A8
ENDCHAR
STARTCHAR L
ENCODING 76
SWIDTH 604 0
DWIDTH 8 0
BBX 8 11 0 0
BITMAP
6A00
6A00
6A00
6A00
6A00
6A00
6A00
6A00
6A95
6AAA
6AAA
ENDCHAR
STARTCHAR M
ENCODING 77
SWIDTH 920 0
DWIDTH 13 0
BBX 13 12 0 0
BITMAP
00001400
6A002A40
65405640
5A806940
65525640
66A5A640
69595A40
69A99A40
6A566A40
6A006A40
6A006A40
6A006A40
ENDCHAR
STARTCHAR N
ENCODING 78
SWIDTH 877 0
DWIDTH 12 0
BBX 12 12 0 0
BITMAP
014000
6A5055
55A055
595455
66A855
655A55
69A555
6A5A95
6A1555
6A0AA5
6A0569
6A0296
ENDCHAR
STARTCHAR O
ENCODING 79
SWIDTH 933 0
DWIDTH 13 0
BBX 13 13 0 -1
BITMAP
00554000
06556400
16666500
29555A00
55809540
55001540
55001540
55001540
5A919940
29959A00
0995A800
02556000
00150000
ENDCHAR
STARTCHAR P
ENCODING 80
SWIDTH 850 0
DWIDTH 12 0
BBX 12 12 0 0
BITMAP
155500
5AAA60
66AA98
69AAA5
6A4169
6A5559
6A6AA8
6A6998
6A6990
6A0000
6A0000
6A0000
ENDCHAR
STARTCHAR Q
ENCODING 81
SWIDTH 937 0
DWIDTH 13 0
BBX 13 14 0 -2
BITMAP
00554000
06556400
16666500
29555A00
55809540
55001540
55001540
55015540
5A959940
29959A00
0995A800
02556500
00151900
00001000
ENDCHAR
STARTCHAR R
ENCODING 82
SWIDTH 843 0
DWIDTH 12 0
BBX 12 12 0 0
BITMAP
155500
5AAA60
66AA98
69AAA4
6A4155
6A6A55
6A6968
6A6954
6A6AA0
6A0AA0
6A06A4
6A02A4
ENDCHAR
STARTCHAR S
ENCODING 83
SWIDTH 682 0
DWIDTH 10 0
BBX 9 13 0 -1
BITMAP
055500
155980
5A5500
555400
555400
569600
26A940
0A9A40
002640
065A40
165540
655600
055000
ENDCHAR
STARTCHAR T
ENCODING 84
SWIDTH 591 0
DWIDTH 8 0
BBX 8 12 0 0
BITMAP
5555
6AA9
6AA9
0AA0
0550
0550
0550
0550
0550
0550
0550
0550
ENDCHAR
STARTCHAR U
ENCODING 85
SWIDTH 905 0
DWIDTH 13 0
BBX 12 13 0 -1
BITMAP
150000
6A006A
6A006A
6A006A
6A006A
6A006A
6A006A
690059
55816A
255595
096958
025550
005500
ENDCHAR
STARTCHAR V
ENCODING 86
SWIDTH 940 0
DWIDTH 13 0
BBX 13 12 0 0
BITMAP
54001540
55401680
2A805540
2A40AA00
15515500
0AA2A800
05556800
01A95400
029AA000
01655000
00AA8000
00568000
ENDCHAR
STARTCHAR W
ENCODING 87
SWIDTH 1161 0
DWIDTH 16 0
BBX 16 12 0 0
BITMAP
40001001
550570AA
55556455
25956955
256AAAA8
1559D6A8
15959954
0999A950
09AAAAA0
05655AA0
02552550
02A42640
ENDCHAR
STARTCHAR X
ENCODING 88
SWIDTH 876 0
DWIDTH 12 0
BBX 12 12 0 0
BITMAP
500001
568295
255558
0A96A0
056950
025680
00A940
025650
0569A0
0A9554
1552A5
1A815A
ENDCHAR
STARTCHAR Y
ENCODING 89
SWIDTH 789 0
DWIDTH 11 0
BBX 11 11 0 0
BITMAP
6A02A4
2A46A0
1A8A90
06AA80
056A40
01AA00
01A900
01A900
01A900
01A900
01A900
ENDCHAR
STARTCHAR Z
ENCODING 90
SWIDTH 854 0
DWIDTH 12 0
BBX 12 12 0 0
BITMAP
155554
6AAA59
6AA969
6A9665
001A65
0099A4
069980
266900
566555
5A5AA9
59AAA9
6AAAA9
ENDCHAR
STARTCHAR bracketleft
ENCODING 91
SWIDTH 320 0
DWIDTH 4 0
BBX 4 13 0 -1
BITMAP
65
59
66
68
68
68
68
68
68
68
6A
6A
65
ENDCHAR
STARTCHAR backslash
ENCODING 92
SWIDTH 448 0
DWIDTH 6 0
BBX 6 13 0 -2
BITMAP
5400
5500
1900
2A00
1500
1540
0540
0A80
0540
0550
0150
02A0
0010
ENDCHAR
STARTCHAR bracketright
ENCODING 93
SWIDTH 319 0
DWIDTH 4 0
BBX 4 13 0 -1
BITMAP
56
59
65
15
15
15
15
15
15
15
65
69
56
ENDCHAR
STARTCHAR asciicircum
ENCODING 94
SWIDTH 475 0
DWIDTH 7 0
BBX 6 6 0 4
BITMAP
0940
0680
1640
2850
14A0
5050
ENDCHAR
STARTCHAR underscore
ENCODING 95
SWIDTH 511 0
DWIDTH 7 0
BBX 7 3 0 -3
BITMAP
6AA4
6AA4
5554
ENDCHAR
STARTCHAR grave
ENCODING 96
SWIDTH 472 0
DWIDTH 7 0
BBX 6 3 0 10
BITMAP
5900
1990
0190
ENDCHAR
STARTCHAR a
ENCODING 97
SWIDTH 832 0
DWIDTH 12 0
BBX 11 11 0 -1
BITMAP
02AA40
195660
29AA94
5595A8
A50198
9901A8
5541A8
296AA8
1AAAA8
06AAA8
001400
ENDCHAR
STARTCHAR b
ENCODING 98
SWIDTH 720 0
DWIDTH 10 0
BBX 10 10 0 0
BITMAP
655600
595580
565950
555550
555A50
555650
555550
555950
555640
555640
ENDCHAR
STARTCHAR c
ENCODING 99
SWIDTH 736 0
DWIDTH 10 0
BBX 10 12 0 -1
BITMAP
001400
066A80
166A60
29A640
559500
6A0000
6A0000
554100
1A5640
165550
065580
005500
ENDCHAR
STARTCHAR d
ENCODING 100
SWIDTH 833 0
DWIDTH 12 0
BBX 11 10 0 0
BITMAP
655640
595650
665594
6995A8
6A0158
6A0158
6A55A8
6AAA54
6AAA60
6AAA40
ENDCHAR
STARTCHAR e
ENCODING 101
SWIDTH 666 0
DWIDTH 9 0
BBX 9 10 0 0
BITMAP
559540
6A9540
6A9540
6A4000
6AAA40
6AAA40
6A5500
6A9540
6AAA40
6AAA40
ENDCHAR
STARTCHAR f
ENCODING 102
SWIDTH 625 0
DWIDTH 9 0
BBX 8 10 0 0
BITMAP
5595
6A95
6A95
6A00
6A95
6A95
6A95
6A00
6A00
6A00
ENDCHAR
STARTCHAR g
ENCODING 103
SWIDTH 827 0
DWIDTH 12 0
BBX 11 12 0 -1
BITMAP
001400
066A80
166A60
29A640
559500
6A0000
6A0154
5542A8
1A5AA8
1656A8
0656A8
005500
ENDCHAR
STARTCHAR h
ENCODING 104
SWIDTH 830 0
DWIDTH 12 0
BBX 11 10 0 0
BITMAP
550154
6A01A8
6A01A8
6A56A8
6AAAA8
6AAAA8
6A02A8
6A01A8
6A01A8
6A01A8
ENDCHAR
STARTCHAR i
ENCODING 105
SWIDTH 337 0
DWIDTH 5 0
BBX 4 10 0 0
BITMAP
55
6A
6A
6A
6A
6A
6A
6A
6A
6A
ENDCHAR
STARTCHAR j
ENCODING 106
SWIDTH 393 0
DWIDTH 6 0
BBX 5 12 0 -2
BITMAP
1540
1540
1540
1540
1540
1540
1540
2640
5640
5A00
5900
5000
ENDCHAR
STARTCHAR k
ENCODING 107
SWIDTH 801 0
DWIDTH 11 0
BBX 11 10 0 0
BITMAP
550154
6A0954
6A15A0
6A2940
6A5540
6A5540
6A2A80
6A1550
6A0A90
6A0568
ENDCHAR
STARTCHAR l
ENCODING 108
SWIDTH 583 0
DWIDTH 8 0
BBX 8 10 0 0
BITMAP
5500
6A00
6A00
6A00
6A00
6A00
6A00
6A95
6AA9
6AA9
ENDCHAR
STARTCHAR m
ENCODING 109
SWIDTH 1167 0
DWIDTH 16 0
BBX 16 11 0 0
BITMAP
00500500
055AA950
266AAA98
5AA9AA95
694AA4A9
6A055055
6A055055
6A055055
6A055055
6A055055
6A055055
ENDCHAR
STARTCHAR n
ENCODING 110
SWIDTH 787 0
DWIDTH 11 0
BBX 11 10 0 0
BITMAP
554054
6550A4
5AA0A4
5958A4
66A5A4
695A64
689564
681A94
681564
680AA4
ENDCHAR
STARTCHAR o
ENCODING 111
SWIDTH 833 0
DWIDTH 12 0
BBX 11 12 0 -1
BITMAP
001400
066A40
166A60
29A654
5595A4
6A0154
6A0194
5542A4
1A5654
165660
065580
005500
ENDCHAR
STARTCHAR p
ENCODING 112
SWIDTH 781 0
DWIDTH 11 0
BBX 11 10 0 0
BITMAP
655640
595650
665690
699554
6A6994
6A6690
6A6650
6A6A40
6A0000
6A0000
ENDCHAR
STARTCHAR q
ENCODING 113
SWIDTH 788 0
DWIDTH 11 0
BBX 11 12 0 -2
BITMAP
025564
155594
195664
5599A4
6602A4
6556A4
5AA6A4
26A6A4
06A6A4
0002A4
0002A4
000154
ENDCHAR
STARTCHAR r
ENCODING 114
SWIDTH 831 0
DWIDTH 12 0
BBX 11 10 0 0
BITMAP
655540
595554
665568
699694
6A5654
6A5568
6A5564
6A6A90
6A0AA0
6A06A0
ENDCHAR
STARTCHAR s
ENCODING 115
SWIDTH 683 0
DWIDTH 10 0
BBX 9 11 0 -1
BITMAP
0AA500
269A40
555900
950000
59AA00
1AA580
015A80
055A40
5AA540
19AA00
004000
ENDCHAR
STARTCHAR t
ENCODING 116
SWIDTH 588 0
DWIDTH 8 0
BBX 8 10 0 0
BITMAP
5555
5555
5AA5
0AA0
0AA0
0AA0
0AA0
0AA0
0AA0
0AA0
ENDCHAR
STARTCHAR u
ENCODING 117
SWIDTH 795 0
DWIDTH 11 0
BBX 11 11 0 -1
BITMAP
550154
6A02A8
6A02A8
6A02A8
6A02A8
6602A8
554564
1A5690
165650
055540
005400
ENDCHAR
STARTCHAR v
ENCODING 118
SWIDTH 855 0
DWIDTH 12 0
BBX 12 10 0 0
BITMAP
550055
564155
2A82A8
155554
06AA90
0A96A0
056550
026A80
015540
00A500
ENDCHAR
STARTCHAR w
ENCODING 119
SWIDTH 1129 0
DWIDTH 16 0
BBX 16 11 0 -1
BITMAP
55055155
6A0551A9
6A0551A9
6A0551A9
6A0551A9
6A0551A9
5955A569
5A5969A8
26AAA994
06AA9990
00500500
ENDCHAR
STARTCHAR x
ENCODING 120
SWIDTH 790 0
DWIDTH 11 0
BBX 11 10 0 0
BITMAP
558554
2966A0
166A50
099580
026A00
029600
056980
06A650
2965A0
568A54
ENDCHAR
STARTCHAR y
ENCODING 121
SWIDTH 733 0
DWIDTH 10 0
BBX 10 10 0 0
BITMAP
550550
2A4550
1A9540
065640
066A00
016900
02A800
01A800
01A800
01A800
ENDCHAR
STARTCHAR z
ENCODING 122
SWIDTH 714 0
DWIDTH 10 0
BBX 10 10 0 0
BITMAP
6A9550
6A6950
6A9540
016900
029500
056800
0A9400
256550
5A9A90
65AA90
ENDCHAR
STARTCHAR braceleft
ENCODING 123
SWIDTH 396 0
DWIDTH 6 0
BBX 5 15 0 -3
BITMAP
0640
1940
2540
2600
2A00
2A00
5600
5900
5500
2500
2A00
2A00
2940
1640
0640
ENDCHAR
STARTCHAR bar
ENCODING 124
SWIDTH 266 0
DWIDTH 4 0
BBX 3 14 0 -2
BITMAP
14
68
68
68
68
68
68
68
68
68
68
68
68
54
ENDCHAR
STARTCHAR braceright
ENCODING 125
SWIDTH 396 0
DWIDTH 6 0
BBX 5 15 0 -3
BITMAP
6400
5600
6940
1A40
0A40
0940
0A40
0540
0980
0A40
0A40
0A40
6540
5600
6800
ENDCHAR
STARTCHAR asciitilde
ENCODING 126
SWIDTH 665 0
DWIDTH 9 0
BBX 9 3 0 8
BITMAP
055000
26A680
56AA40
ENDCHAR
STARTCHAR uni00A0
ENCODING 160
SWIDTH 108 0
DWIDTH 2 0
BBX 1 1 0 0
BITMAP
00
ENDCHAR
STARTCHAR exclamdown
ENCODING 161
SWIDTH 336 0
DWIDTH 5 0
BBX 4 13 0 -1
BITMAP
15
6A
6A
6A
6A
6A
6A
6A
6A
00
55
55
6A
ENDCHAR
STARTCHAR cent
ENCODING 162
SWIDTH 708 0
DWIDTH 10 0
BBX 10 14 0 -1
BITMAP
004400
004400
015500
095980
259950
569500
550000
550000
559900
299A40
166650
06AA40
001000
008400
ENDCHAR
STARTCHAR sterling
ENCODING 163
SWIDTH 689 0
DWIDTH 10 0
BBX 9 12 0 0
BITMAP
055500
155980
295540
559400
6A0000
6A6900
6A6900
6A6900
6A0000
6A5500
6AA900
6AA900
ENDCHAR
STARTCHAR currency
ENCODING 164
SWIDTH 715 0
DWIDTH 10 0
BBX 10 11 0 0
BITMAP
040100
550590
56A950
195640
150540
240180
240180
150540
19A640
56A950
180240
ENDCHAR
STARTCHAR yen
ENCODING 165
SWIDTH 796 0
DWIDTH 11 0
BBX 11 11 0 0
BITMAP
550154
154550
155550
05A540
055540
019500
019500
15AA50
19AA90
00A900
00A900
ENDCHAR
STARTCHAR brokenbar
ENCODING 166
SWIDTH 263 0
DWIDTH 4 0
BBX 3 14 0 -2
BITMAP
14
68
68
68
68
68
00
00
54
68
68
68
68
54
ENDCHAR
STARTCHAR section
ENCODING 167
SWIDTH 108 0
DWIDTH 2 0
BBX 1 1 0 0
BITMAP
00
ENDCHAR
STARTCHAR dieresis
ENCODING 168
SWIDTH 556 0
DWIDTH 8 0
BBX 8 2 0 10
BITMAP
5455
5414
ENDCHAR
STARTCHAR copyright
ENCODING 169
SWIDTH 869 0
DWIDTH 12 0
BBX 12 12 0 0
BITMAP
00AA40
0640A0
186A18
224189
560006
990002
990002
560005
219588
186924
065590
005500
ENDCHAR
STARTCHAR ordfeminine
ENCODING 170
SWIDTH 833 0
DWIDTH 12 0
BBX 11 11 0 -1
BITMAP
02AA40
199660
25AA54
5595A8
6501A8
5A01A8
5541A8
2969A8
1AA9A8
06A9A8
001400
ENDCHAR
STARTCHAR guillemotleft
ENCODING 171
SWIDTH 911 0
DWIDTH 13 0
BBX 12 7 0 2
BITMAP
001001
069019
669259
659259
695295
299199
019019
ENDCHAR
STARTCHAR logicalnot
ENCODING 172
SWIDTH 718 0
DWIDTH 10 0
BBX 10 5 0 3
BITMAP
155550
6AAA90
6AAA90
000290
000290
ENDCHAR
STARTCHAR registered
ENCODING 174
SWIDTH 869 0
DWIDTH 12 0
BBX 12 12 0 0
BITMAP
00AA40
0640A0
185418
20AA49
508086
909642
909A02
508205
208248
180024
065590
005500
ENDCHAR
STARTCHAR degree
ENCODING 176
SWIDTH 330 0
DWIDTH 5 0
BBX 4 4 0 11
BITMAP
14
66
52
29
ENDCHAR
STARTCHAR plusminus
ENCODING 177
SWIDTH 598 0
DWIDTH 8 0
BBX 8 9 0 0
BITMAP
0550
06A0
5AA5
5AA5
5AA5
06A0
0550
1555
1555
ENDCHAR
STARTCHAR uni00B2
ENCODING 178
SWIDTH 435 0
DWIDTH 6 0
BBX 6 10 0 2
BITMAP
0500
2A90
15A0
0190
0280
0A00
1900
1400
6A80
6A80
ENDCHAR
STARTCHAR uni00B3
ENCODING 179
SWIDTH 515 0
DWIDTH 7 0
BBX 7 11 0 1
BITMAP
1500
6A90
69A0
1164
0694
0560
0558
1598
2994
5590
0500
ENDCHAR
STARTCHAR acute
ENCODING 180
SWIDTH 472 0
DWIDTH 7 0
BBX 5 3 1 10
BITMAP
0640
6600
6000
ENDCHAR
STARTCHAR uni00B5
ENCODING 181
SWIDTH 802 0
DWIDTH 11 0
BBX 11 12 0 -2
BITMAP
550154
6A02A8
6A02A8
6A02A8
6A02A8
6A02A8
6A0568
6A5654
6A5660
6A6580
6A5400
150000
ENDCHAR
STARTCHAR paragraph
ENCODING 182
SWIDTH 676 0
DWIDTH 9 0
BBX 9 12 0 -2
BITMAP
065580
165680
5A5A80
556A80
556A80
5A6A80
266A80
06AA80
002A80
002A80
002A80
001540
ENDCHAR
STARTCHAR periodcentered
ENCODING 183
SWIDTH 260 0
DWIDTH 4 0
BBX 3 3 0 5
BITMAP
54
54
54
ENDCHAR
STARTCHAR cedilla
ENCODING 184
SWIDTH 321 0
DWIDTH 5 0
BBX 4 5 0 -6
BITMAP
15
59
55
25
05
ENDCHAR
STARTCHAR uni00B9
ENCODING 185
SWIDTH 359 0
DWIDTH 5 0
BBX 5 9 0 3
BITMAP
5500
6A40
1A40
0A40
0A40
0A40
0A40
0A40
0540
ENDCHAR
STARTCHAR ordmasculine
ENCODING 186
SWIDTH 835 0
DWIDTH 12 0
BBX 12 12 0 -1
BITMAP
001400
066A80
19AA60
29AA54
5596A4
6A0155
6A0195
5582A4
295658
165660
065580
005500
ENDCHAR
STARTCHAR guillemotright
ENCODING 187
SWIDTH 912 0
DWIDTH 13 0
BBX 12 7 0 2
BITMAP
500100
590190
596196
19A196
26A15A
699199
690190
ENDCHAR
STARTCHAR onequarter
ENCODING 188
SWIDTH 1236 0
DWIDTH 17 0
BBX 17 13 0 -1
BITMAP
5500000000
6A41540000
1A42900000
0A42A05500
0A4150A800
0A45515400
0A4A42A100
0A4A855540
0545455540
0015455540
0025055A80
002A000640
0015000000
ENDCHAR
STARTCHAR onehalf
ENCODING 189
SWIDTH 1154 0
DWIDTH 16 0
BBX 16 13 0 -1
BITMAP
55000000
6A415400
1A429000
0A42A158
0A415256
0A45500A
0A4A4028
0A4A8054
054540A0
00154280
00250694
002A06A9
00150000
ENDCHAR
STARTCHAR threequarters
ENCODING 190
SWIDTH 1345 0
DWIDTH 19 0
BBX 19 13 0 -1
BITMAP
1500000000
6A90154000
69A0290000
11642A0A80
0694151540
0560542A00
0558A45550
1598A85450
2A94545554
5591505554
05029055A4
0002A000A0
0001500000
ENDCHAR
STARTCHAR questiondown
ENCODING 191
SWIDTH 693 0
DWIDTH 10 0
BBX 10 12 0 0
BITMAP
055400
666A00
155680
056950
001590
1A5A80
1A6940
1A6900
1A1000
150000
1A0000
1A0000
ENDCHAR
STARTCHAR Agrave
ENCODING 192
SWIDTH 936 0
DWIDTH 13 0
BBX 13 16 0 0
BITMAP
05800000
01980000
00140000
00000000
00000000
00AA8000
00A94000
01555000
029AA000
05595400
0A52A800
0AA29400
15555500
2A95AA00
55959540
A5001A80
ENDCHAR
STARTCHAR Aacute
ENCODING 193
SWIDTH 936 0
DWIDTH 13 0
BBX 13 16 0 0
BITMAP
00005400
00056000
00050000
00000000
00000000
00AA8000
00A94000
01555000
029AA000
05595400
0A52A800
0AA29400
15555500
2A95AA00
55959540
A5001A80
ENDCHAR
STARTCHAR Acircumflex
ENCODING 194
SWIDTH 936 0
DWIDTH 13 0
BBX 13 16 0 0
BITMAP
00150000
002A0000
00594000
00514000
00000000
00AA8000
00A94000
01555000
029AA000
05595400
0A52A800
0AA29400
15555500
2A95AA00
55959540
A5001A80
ENDCHAR
STARTCHAR Atilde
ENCODING 195
SWIDTH 936 0
DWIDTH 13 0
BBX 13 16 0 0
BITMAP
00550000
056A5800
056AA400
00000000
00000000
00AA8000
00A94000
01555000
029AA000
05595400
0A52A800
0AA29400
15555500
2A95AA00
55959540
A5001A80
ENDCHAR
STARTCHAR Adieresis
ENCODING 196
SWIDTH 936 0
DWIDTH 13 0
BBX 13 14 0 0
BITMAP
01515000
01515000
00000000
00AA8000
00A94000
01555000
029AA000
05595400
0A52A800
0AA29400
15555500
2A95AA00
55959540
A5001A80
ENDCHAR
STARTCHAR Aring
ENCODING 197
SWIDTH 936 0
DWIDTH 13 0
BBX 13 16 0 0
BITMAP
00050000
00260000
00614000
002A0000
00050000
00AA8000
00A94000
01555000
029AA000
05595400
0A52A800
0AA29400
15555500
2A95AA00
55959540
A5001A80
ENDCHAR
STARTCHAR AE
ENCODING 198
SWIDTH 1198 0
DWIDTH 17 0
BBX 16 12 0 0
BITMAP
00005555
00AAAAAA
00A96AAA
01556000
029AA000
05595955
0A52A955
0AA29A55
15555900
2A95AA55
569596AA
95002AAA
ENDCHAR
STARTCHAR Ccedilla
ENCODING 199
SWIDTH 852 0
DWIDTH 12 0
BBX 12 18 0 -6
BITMAP
005540
065564
166665
295664
558040
550000
550000
550000
5A9090
299595
0995A8
025560
001900
006500
009900
006400
005400
001400
ENDCHAR
STARTCHAR Egrave
ENCODING 200
SWIDTH 706 0
DWIDTH 10 0
BBX 9 16 0 0
BITMAP
590000
199000
019000
000000
005540
6AAA80
6AAA80
6A4000
6A0000
6A9400
6A9400
6A9400
6A0000
6A9540
6AAA80
6AAA80
ENDCHAR
STARTCHAR Eacute
ENCODING 201
SWIDTH 706 0
DWIDTH 10 0
BBX 10 16 0 0
BITMAP
000650
006640
006400
000000
005540
6AAA80
6AAA80
6A4000
6A0000
6A9400
6A9400
6A9400
6A0000
6A9540
6AAA80
6AAA80
ENDCHAR
STARTCHAR Ecircumflex
ENCODING 202
SWIDTH 706 0
DWIDTH 10 0
BBX 9 16 0 0
BITMAP
009000
015400
026800
015400
005540
6AAA80
6AAA80
6A4000
6A0000
6A9400
6A9400
6A9400
6A0000
6A9540
6AAA80
6AAA80
ENDCHAR
STARTCHAR Edieresis
ENCODING 203
SWIDTH 706 0
DWIDTH 10 0
BBX 9 14 0 0
BITMAP
150540
150540
005540
6AAA80
6AAA80
6A4000
6A0000
6A9400
6A9400
6A9400
6A0000
6A9540
6AAA80
6AAA80
ENDCHAR
STARTCHAR Igrave
ENCODING 204
SWIDTH 338 0
DWIDTH 5 0
BBX 6 16 -2 0
BITMAP
6400
2640
0240
0000
0000
06A0
06A0
06A0
06A0
06A0
06A0
06A0
06A0
06A0
06A0
06A0
ENDCHAR
STARTCHAR Iacute
ENCODING 205
SWIDTH 338 0
DWIDTH 5 0
BBX 7 16 0 0
BITMAP
0094
1990
0500
0000
0000
6A00
6A00
6A00
6A00
6A00
6A00
6A00
6A00
6A00
6A00
6A00
ENDCHAR
STARTCHAR Icircumflex
ENCODING 206
SWIDTH 338 0
DWIDTH 5 0
BBX 4 16 0 0
BITMAP
25
1A
59
51
00
6A
6A
6A
6A
6A
6A
6A
6A
6A
6A
6A
ENDCHAR
STARTCHAR Idieresis
ENCODING 207
SWIDTH 338 0
DWIDTH 5 0
BBX 7 14 -1 0
BITMAP
5454
5454
0000
1A80
1A80
1A80
1A80
1A80
1A80
1A80
1A80
1A80
1A80
1A80
ENDCHAR
STARTCHAR Eth
ENCODING 208
SWIDTH 905 0
DWIDTH 13 0
BBX 13 12 0 0
BITMAP
15550000
2AAA6000
2AAA9800
2AA99500
15416A00
55505500
55505940
6A90A900
2A966A00
2AAAA500
2AAA9400
2AAA9000
ENDCHAR
STARTCHAR Ntilde
ENCODING 209
SWIDTH 877 0
DWIDTH 12 0
BBX 12 16 0 0
BITMAP
015510
09A994
066A60
000000
014000
6A5055
55A055
595455
66A855
655A55
69A555
6A5A95
6A1555
6A0AA5
6A0569
6A0296
ENDCHAR
STARTCHAR Ograve
ENCODING 210
SWIDTH 933 0
DWIDTH 13 0
BBX 13 17 0 -1
BITMAP
05400000
01580000
00140000
00000000
00554000
06556400
16666500
29555A00
55809540
55001540
55001540
55001540
5A919940
29959A00
0995A800
02556000
00150000
ENDCHAR
STARTCHAR Oacute
ENCODING 211
SWIDTH 933 0
DWIDTH 13 0
BBX 13 17 0 -1
BITMAP
00005400
00096000
00050000
00000000
00554000
06556400
16666500
29555A00
55809540
55001540
55001540
55001540
5A919940
29959A00
0995A800
02556000
00150000
ENDCHAR
STARTCHAR Ocircumflex
ENCODING 212
SWIDTH 933 0
DWIDTH 13 0
BBX 13 17 0 -1
BITMAP
00150000
002A0000
00594000
00514000
00554000
06556400
16666500
29555A00
55809540
55001540
55001540
55001540
5A919940
29959A00
0995A800
02556000
00150000
ENDCHAR
STARTCHAR Otilde
ENCODING 213
SWIDTH 933 0
DWIDTH 13 0
BBX 13 17 0 -1
BITMAP
00550000
056A5400
056AA400
00000000
00554000
06556400
16666500
29555A00
55809540
55001540
55001540
55001540
5A919940
29959A00
0995A800
02556000
00150000
ENDCHAR
STARTCHAR Odieresis
ENCODING 214
SWIDTH 933 0
DWIDTH 13 0
BBX 13 15 0 -1
BITMAP
01515000
01515000
00554000
06556400
16666500
29555A00
55809540
55001540
55001540
55001540
5A919940
29959A00
0995A800
02556000
00150000
ENDCHAR
STARTCHAR multiply
ENCODING 215
SWIDTH 790 0
DWIDTH 11 0
BBX 11 10 0 0
BITMAP
558554
2966A0
166A50
099580
026A00
029600
056980
06A650
2965A0
568A54
ENDCHAR
STARTCHAR Oslash
ENCODING 216
SWIDTH 938 0
DWIDTH 13 0
BBX 13 15 0 -2
BITMAP
00005400
00559800
06556400
16666500
29555A00
55809540
55002980
95002940
55001540
5A919540
29959600
0995A800
06556000
05550000
05400000
ENDCHAR
STARTCHAR Ugrave
ENCODING 217
SWIDTH 905 0
DWIDTH 13 0
BBX 12 17 0 -1
BITMAP
064000
066400
006400
000000
150000
6A006A
6A006A
6A006A
6A006A
6A006A
6A006A
690059
55816A
255595
096958
025550
005500
ENDCHAR
STARTCHAR Uacute
ENCODING 218
SWIDTH 905 0
DWIDTH 13 0
BBX 12 17 0 -1
BITMAP
000194
001990
000500
000000
150000
6A006A
6A006A
6A006A
6A006A
6A006A
6A006A
690059
55816A
255595
096958
025550
005500
ENDCHAR
STARTCHAR Ucircumflex
ENCODING 219
SWIDTH 905 0
DWIDTH 13 0
BBX 12 17 0 -1
BITMAP
002500
001A00
005A00
005100
150000
6A006A
6A006A
6A006A
6A006A
6A006A
6A006A
690059
55816A
255595
096958
025550
005500
ENDCHAR
STARTCHAR Udieresis
ENCODING 220
SWIDTH 905 0
DWIDTH 13 0
BBX 12 15 0 -1
BITMAP
015150
015150
150000
6A006A
6A006A
6A006A
6A006A
6A006A
6A006A
690059
55816A
255595
096958
025550
005500
ENDCHAR
STARTCHAR Yacute
ENCODING 221
SWIDTH 789 0
DWIDTH 11 0
BBX 11 16 0 0
BITMAP
000150
002580
001400
000000
000000
6A02A4
2A46A0
1A8A90
06AA80
056A40
01AA00
01A900
01A900
01A900
01A900
01A900
ENDCHAR
STARTCHAR Thorn
ENCODING 222
SWIDTH 798 0
DWIDTH 11 0
BBX 11 13 0 -1
BITMAP
550000
6AA500
6A9980
6AA560
6AA654
6A01A8
6A0298
6A5554
6A5694
6A6650
6A6640
6A5000
6A0000
ENDCHAR
STARTCHAR germandbls
ENCODING 223
SWIDTH 826 0
DWIDTH 12 0
BBX 11 13 0 -1
BITMAP
055540
165660
295654
5595A8
6A56A8
6A6654
6A6A98
6A0168
6A5698
6A6A58
6A6A64
6A6A80
550000
ENDCHAR
STARTCHAR agrave
ENCODING 224
SWIDTH 832 0
DWIDTH 12 0
BBX 11 15 0 -1
BITMAP
160000
066400
005000
000000
02AA40
195660
29AA94
5595A8
A50198
9901A8
5541A8
296AA8
1AAAA8
06AAA8
001400
ENDCHAR
STARTCHAR aacute
ENCODING 225
SWIDTH 832 0
DWIDTH 12 0
BBX 11 15 0 -1
BITMAP
000190
001980
001800
000000
02AA40
195660
29AA94
5595A8
A50198
9901A8
5541A8
296AA8
1AAAA8
06AAA8
001400
ENDCHAR
STARTCHAR acircumflex
ENCODING 226
SWIDTH 832 0
DWIDTH 12 0
BBX 11 15 0 -1
BITMAP
005400
00A800
006500
004500
02AA40
195660
29AA94
5595A8
A50198
9901A8
5541A8
296AA8
1AAAA8
06AAA8
001400
ENDCHAR
STARTCHAR atilde
ENCODING 227
SWIDTH 832 0
DWIDTH 12 0
BBX 11 15 0 -1
BITMAP
015400
19A9A0
15AA90
001400
02AA40
195660
29AA94
5595A8
A50198
9901A8
5541A8
296AA8
1AAAA8
06AAA8
001400
ENDCHAR
STARTCHAR adieresis
ENCODING 228
SWIDTH 832 0
DWIDTH 12 0
BBX 11 14 0 -1
BITMAP
054540
054540
000000
02AA40
195660
29AA94
5595A8
A50198
9901A8
5541A8
296AA8
1AAAA8
06AAA8
001400
ENDCHAR
STARTCHAR aring
ENCODING 229
SWIDTH 832 0
DWIDTH 12 0
BBX 11 16 0 -1
BITMAP
001400
009500
008500
006800
001000
02AA40
195660
29AA94
5595A8
A50198
9901A8
5541A8
296AA8
1AAAA8
06AAA8
001400
ENDCHAR
STARTCHAR ae
ENCODING 230
SWIDTH 1166 0
DWIDTH 16 0
BBX 16 11 0 -1
BITMAP
02AA5655
19566655
29AA9A55
5595A900
A5019AA9
9901AAA9
5541A954
296AAA55
1AAAAAA9
06AAAAA9
00140000
ENDCHAR
STARTCHAR ccedilla
ENCODING 231
SWIDTH 736 0
DWIDTH 10 0
BBX 10 17 0 -6
BITMAP
001400
066A80
166A60
29A640
559500
6A0000
6A0000
554100
1A5640
165550
065580
006900
005400
015400
019000
015400
001000
ENDCHAR
STARTCHAR egrave
ENCODING 232
SWIDTH 666 0
DWIDTH 9 0
BBX 9 14 0 0
BITMAP
590000
199000
014000
000000
559540
6A9540
6A9540
6A4000
6AAA40
6AAA40
6A5500
6A9540
6AAA40
6AAA40
ENDCHAR
STARTCHAR eacute
ENCODING 233
SWIDTH 666 0
DWIDTH 9 0
BBX 9 14 0 0
BITMAP
000640
006640
006400
000000
559540
6A9540
6A9540
6A4000
6AAA40
6AAA40
6A5500
6A9540
6AAA40
6AAA40
ENDCHAR
STARTCHAR ecircumflex
ENCODING 234
SWIDTH 666 0
DWIDTH 9 0
BBX 9 14 0 0
BITMAP
019000
025000
015400
011400
559540
6A9540
6A9540
6A4000
6AAA40
6AAA40
6A5500
6A9540
6AAA40
6AAA40
ENDCHAR
STARTCHAR edieresis
ENCODING 235
SWIDTH 666 0
DWIDTH 9 0
BBX 9 13 0 0
BITMAP
151500
151500
000000
559540
6A9540
6A9540
6A4000
6AAA40
6AAA40
6A5500
6A9540
6AAA40
6AAA40
ENDCHAR
STARTCHAR igrave
ENCODING 236
SWIDTH 337 0
DWIDTH 5 0
BBX 6 14 -2 0
BITMAP
6400
2640
0240
0000
0550
06A0
06A0
06A0
06A0
06A0
06A0
06A0
06A0
06A0
ENDCHAR
STARTCHAR iacute
ENCODING 237
SWIDTH 337 0
DWIDTH 5 0
BBX 7 14 0 0
BITMAP
0094
1990
0500
0000
5500
6A00
6A00
6A00
6A00
6A00
6A00
6A00
6A00
6A00
ENDCHAR
STARTCHAR icircumflex
ENCODING 238
SWIDTH 337 0
DWIDTH 5 0
BBX 4 14 0 0
BITMAP
25
1A
59
51
55
6A
6A
6A
6A
6A
6A
6A
6A
6A
ENDCHAR
STARTCHAR idieresis
ENCODING 239
SWIDTH 337 0
DWIDTH 5 0
BBX 7 13 -1 0
BITMAP
5454
5454
0000
1540
1A80
1A80
1A80
1A80
1A80
1A80
1A80
1A80
1A80
ENDCHAR
STARTCHAR eth
ENCODING 240
SWIDTH 783 0
DWIDTH 11 0
BBX 11 13 0 -1
BITMAP
055500
169580
0559A0
015694
0002A4
06A6A4
25A6A4
56A6A4
5655A4
5556A0
295660
1A9640
015400
ENDCHAR
STARTCHAR ntilde
ENCODING 241
SWIDTH 787 0
DWIDTH 11 0
BBX 11 14 0 0
BITMAP
015400
15A950
19A990
000000
554054
6550A4
5AA0A4
5958A4
66A5A4
695A64
689564
681A94
681564
680AA4
ENDCHAR
STARTCHAR ograve
ENCODING 242
SWIDTH 833 0
DWIDTH 12 0
BBX 11 15 0 -1
BITMAP
164000
066400
006400
001400
066A40
166A60
29A654
5595A4
6A0154
6A0194
5542A4
1A5654
165660
065580
005500
ENDCHAR
STARTCHAR oacute
ENCODING 243
SWIDTH 833 0
DWIDTH 12 0
BBX 11 15 0 -1
BITMAP
000190
001990
001900
001400
066A40
166A60
29A654
5595A4
6A0154
6A0194
5542A4
1A5654
165660
065580
005500
ENDCHAR
STARTCHAR ocircumflex
ENCODING 244
SWIDTH 833 0
DWIDTH 12 0
BBX 11 15 0 -1
BITMAP
002400
005400
009900
000100
066A40
166A60
29A654
5595A4
6A0154
6A0194
5542A4
1A5654
165660
065580
005500
ENDCHAR
STARTCHAR otilde
ENCODING 245
SWIDTH 833 0
DWIDTH 12 0
BBX 11 15 0 -1
BITMAP
015500
09A9A0
156A50
005500
066A40
166A60
29A654
5595A4
6A0154
6A0194
5542A4
1A5654
165660
065580
005500
ENDCHAR
STARTCHAR odieresis
ENCODING 246
SWIDTH 833 0
DWIDTH 12 0
BBX 11 14 0 -1
BITMAP
054540
054540
001400
066A40
166A60
29A654
5595A4
6A0154
6A0194
5542A4
1A5654
165660
065580
005500
ENDCHAR
STARTCHAR divide
ENCODING 247
SWIDTH 260 0
DWIDTH 4 0
BBX 5 9 -1 0
BITMAP
1500
1A00
1500
5540
1540
0000
1A00
1A00
0500
ENDCHAR
STARTCHAR oslash
ENCODING 248
SWIDTH 832 0
DWIDTH 12 0
BBX 11 13 0 -2
BITMAP
001550
066A90
16AA60
29A654
5595A8
5501A8
5501A8
5542A8
195658
165560
165580
155500
010000
ENDCHAR
STARTCHAR ugrave
ENCODING 249
SWIDTH 795 0
DWIDTH 11 0
BBX 11 15 0 -1
BITMAP
150000
056000
005000
000000
550154
6A02A8
6A02A8
6A02A8
6A02A8
6602A8
554564
1A5690
165650
055540
005400
ENDCHAR
STARTCHAR uacute
ENCODING 250
SWIDTH 795 0
DWIDTH 11 0
BBX 11 15 0 -1
BITMAP
000150
001580
001400
000000
550154
6A02A8
6A02A8
6A02A8
6A02A8
6602A8
554564
1A5690
165650
055540
005400
ENDCHAR
STARTCHAR ucircumflex
ENCODING 251
SWIDTH 795 0
DWIDTH 11 0
BBX 11 15 0 -1
BITMAP
005400
00A800
016500
014500
550154
6A02A8
6A02A8
6A02A8
6A02A8
6602A8
554564
1A5690
165650
055540
005400
ENDCHAR
STARTCHAR udieresis
ENCODING 252
SWIDTH 795 0
DWIDTH 11 0
BBX 11 14 0 -1
BITMAP
054540
054540
000000
550154
6A02A8
6A02A8
6A02A8
6A02A8
6602A8
554564
1A5690
165650
055540
005400
ENDCHAR
STARTCHAR yacute
ENCODING 253
SWIDTH 733 0
DWIDTH 10 0
BBX 10 14 0 0
BITMAP
000650
006640
006400
000000
550550
2A4550
1A9540
065640
066A00
016900
02A800
01A800
01A800
01A800
ENDCHAR
STARTCHAR thorn
ENCODING 254
SWIDTH 833 0
DWIDTH 12 0
BBX 12 14 0 -2
BITMAP
150000
6A0000
6A0000
6A1500
6A6960
6A6A98
6A69A8
6A1665
6A55A4
6A5594
6A5550
6A1500
6A0000
550000
ENDCHAR
STARTCHAR ydieresis
ENCODING 255
SWIDTH 733 0
DWIDTH 10 0
BBX 10 13 0 0
BITMAP
154540
054540
000000
550550
2A4550
1A9540
065640
066A00
016900
02A800
01A800
01A800
01A800
ENDCHAR
STARTCHAR Amacron
ENCODING 256
SWIDTH 936 0
DWIDTH 13 0
BBX 13 11 0 0
BITMAP
00AA8000
00A94000
01555000
029AA000
05595400
0A52A800
0AA29400
15555500
2A95AA00
55959540
A5001A80
ENDCHAR
STARTCHAR amacron
ENCODING 257
SWIDTH 832 0
DWIDTH 12 0
BBX 11 11 0 -1
BITMAP
02AA40
195660
29AA94
5595A8
A50198
9901A8
5541A8
296AA8
1AAAA8
06AAA8
001400
ENDCHAR
STARTCHAR Abreve
ENCODING 258
SWIDTH 936 0
DWIDTH 13 0
BBX 13 15 0 0
BITMAP
00514000
001A0000
00000000
00000000
00AA8000
00A94000
01555000
029AA000
05595400
0A52A800
0AA29400
15555500
2A95AA00
55959540
A5001A80
ENDCHAR
STARTCHAR abreve
ENCODING 259
SWIDTH 832 0
DWIDTH 12 0
BBX 11 14 0 -1
BITMAP
014500
006900
000000
02AA40
195660
29AA94
5595A8
A50198
9901A8
5541A8
296AA8
1AAAA8
06AAA8
001400
ENDCHAR
STARTCHAR Aogonek
ENCODING 260
SWIDTH 937 0
DWIDTH 13 0
BBX 13 16 0 -4
BITMAP
00004000
006A8000
00A55000
0156A000
029AA000
01695400
0556A800
0AA15500
15655A00
2A95AA00
26955540
55542A80
00940000
00600000
00540000
00540000
ENDCHAR
STARTCHAR aogonek
ENCODING 261
SWIDTH 832 0
DWIDTH 12 0
BBX 11 15 0 -5
BITMAP
02AA40
195660
29AA94
5595A8
A50198
9901A8
5541A8
296AA8
1AAAA8
06AAA8
006400
015000
018000
015000
015000
ENDCHAR
STARTCHAR Cacute
ENCODING 262
SWIDTH 852 0
DWIDTH 12 0
BBX 12 17 0 -1
BITMAP
000054
000960
000500
000000
005540
065564
166665
295664
558040
550000
550000
550000
5A9090
299595
0995A8
025560
001500
ENDCHAR
STARTCHAR cacute
ENCODING 263
SWIDTH 736 0
DWIDTH 10 0
BBX 10 15 0 -1
BITMAP
000190
001990
001900
001400
066A80
166A60
29A640
559500
6A0000
6A0000
554100
1A5640
165550
065580
005500
ENDCHAR
STARTCHAR Cdotaccent
ENCODING 266
SWIDTH 852 0
DWIDTH 12 0
BBX 12 17 0 -1
BITMAP
001500
001900
001900
000000
005540
065564
166665
295664
558040
550000
550000
550000
5A9090
299595
0995A8
025560
001500
ENDCHAR
STARTCHAR cdotaccent
ENCODING 267
SWIDTH 736 0
DWIDTH 10 0
BBX 10 15 0 -1
BITMAP
001400
006800
006800
005400
066A80
166A60
29A640
559500
6A0000
6A0000
554100
1A5640
165550
065580
005500
ENDCHAR
STARTCHAR Ccaron
ENCODING 268
SWIDTH 852 0
DWIDTH 12 0
BBX 12 17 0 -1
BITMAP
005540
001900
002A00
000500
005540
065564
166665
295664
558040
550000
550000
550000
5A9090
299595
0995A8
025560
001500
ENDCHAR
STARTCHAR ccaron
ENCODING 269
SWIDTH 736 0
DWIDTH 10 0
BBX 10 16 0 -1
BITMAP
005500
009500
006800
001400
001400
066A80
166A60
29A640
559500
6A0000
6A0000
554100
1A5640
165550
065580
005500
ENDCHAR
STARTCHAR Dcaron
ENCODING 270
SWIDTH 886 0
DWIDTH 12 0
BBX 12 16 0 0
BITMAP
005540
005A00
002500
001400
155500
5AA990
66AA94
69A9A5
6A415A
6A00AA
6A006A
6A00AA
6A5656
6AAA68
6AAA94
6AAA90
ENDCHAR
STARTCHAR dcaron
ENCODING 271
SWIDTH 1084 0
DWIDTH 15 0
BBX 15 11 0 0
BITMAP
00000054
65564054
59565054
66559454
6995A860
6A015800
6A015800
6A55A800
6AAA5400
6AAA6000
6AAA4000
ENDCHAR
STARTCHAR Dcroat
ENCODING 272
SWIDTH 888 0
DWIDTH 12 0
BBX 13 12 -1 0
BITMAP
05554000
16AA6400
19AAA500
1A6A6940
1A905A80
5A942A40
5A942A40
6A982A80
1AA59540
1AAA9A00
1AAAA500
1AAAA400
ENDCHAR
STARTCHAR dcroat
ENCODING 273
SWIDTH 833 0
DWIDTH 12 0
BBX 12 10 -1 0
BITMAP
195590
165594
199565
1A656A
5A9456
6A9456
1A956A
1AAA95
1AAA98
1AAA90
ENDCHAR
STARTCHAR Emacron
ENCODING 274
SWIDTH 706 0
DWIDTH 10 0
BBX 9 12 0 0
BITMAP
005540
6AAA80
6AAA80
6A4000
6A0000
6A9400
6A9400
6A9400
6A0000
6A9540
6AAA80
6AAA80
ENDCHAR
STARTCHAR emacron
ENCODING 275
SWIDTH 666 0
DWIDTH 9 0
BBX 9 10 0 0
BITMAP
559540
6A9540
6A9540
6A4000
6AAA40
6AAA40
6A5500
6A9540
6AAA40
6AAA40
ENDCHAR
STARTCHAR Ebreve
ENCODING 276
SWIDTH 706 0
DWIDTH 10 0
BBX 9 15 0 0
BITMAP
015400
01A400
000000
005540
6AAA80
6AAA80
6A4000
6A0000
6A9400
6A9400
6A9400
6A0000
6A9540
6AAA80
6AAA80
ENDCHAR
STARTCHAR ebreve
ENCODING 277
SWIDTH 666 0
DWIDTH 9 0
BBX 9 13 0 0
BITMAP
051400
01A400
000000
559540
6A9540
6A9540
6A4000
6AAA40
6AAA40
6A5500
6A9540
6AAA40
6AAA40
ENDCHAR
STARTCHAR Edotaccent
ENCODING 278
SWIDTH 706 0
DWIDTH 10 0
BBX 9 15 0 0
BITMAP
005000
005000
005000
005540
6AAA80
6AAA80
6A4000
6A0000
6A9400
6A9400
6A9400
6A0000
6A9540
6AAA80
6AAA80
ENDCHAR
STARTCHAR edotaccent
ENCODING 279
SWIDTH 666 0
DWIDTH 9 0
BBX 9 14 0 0
BITMAP
015000
015000
015000
000000
559540
6A9540
6A9540
6A4000
6AAA40
6AAA40
6A5500
6A9540
6AAA40
6AAA40
ENDCHAR
STARTCHAR Eogonek
ENCODING 280
SWIDTH 706 0
DWIDTH 10 0
BBX 10 16 0 -4
BITMAP
005540
6AAA80
6AAA80
6A4000
6A0000
6A9400
6A9400
6A9400
6A0000
6A9540
6AAA80
6AAAD0
000240
000140
000290
000150
ENDCHAR
STARTCHAR eogonek
ENCODING 281
SWIDTH 666 0
DWIDTH 9 0
BBX 9 14 0 -4
BITMAP
559540
6A9540
6A9540
6A4000
6AAA40
6AAA40
6A5500
6A9540
6AAA40
6AAA80
000540
000600
000540
000540
ENDCHAR
STARTCHAR Ecaron
ENCODING 282
SWIDTH 706 0
DWIDTH 10 0
BBX 9 16 0 0
BITMAP
015400
026400
019000
005000
005540
6AAA80
6AAA80
6A4000
6A0000
6A9400
6A9400
6A9400
6A0000
6A9540
6AAA80
6AAA80
ENDCHAR
STARTCHAR ecaron
ENCODING 283
SWIDTH 666 0
DWIDTH 9 0
BBX 9 15 0 0
BITMAP
055400
025400
01A000
005000
000000
559540
6A9540
6A9540
6A4000
6AAA40
6AAA40
6A5500
6A9540
6AAA40
6AAA40
ENDCHAR
STARTCHAR Gbreve
ENCODING 286
SWIDTH 908 0
DWIDTH 13 0
BBX 12 16 0 -1
BITMAP
005140
002A00
000000
005540
065564
166665
295664
558040
550000
660055
69006A
5A90AA
2556AA
096AAA
0256AA
001540
ENDCHAR
STARTCHAR gbreve
ENCODING 287
SWIDTH 827 0
DWIDTH 12 0
BBX 11 14 0 -1
BITMAP
005500
006900
001400
066A80
166A60
29A640
559500
6A0000
6A0154
5542A8
1A5AA8
1656A8
0656A8
005500
ENDCHAR
STARTCHAR Gdotaccent
ENCODING 288
SWIDTH 908 0
DWIDTH 13 0
BBX 12 17 0 -1
BITMAP
001500
001900
001900
000000
005540
065564
166665
295664
558040
550000
660055
69006A
5A90AA
2556AA
096AAA
0256AA
001540
ENDCHAR
STARTCHAR gdotaccent
ENCODING 289
SWIDTH 827 0
DWIDTH 12 0
BBX 11 15 0 -1
BITMAP
001400
006800
006800
005400
066A80
166A60
29A640
559500
6A0000
6A0154
5542A8
1A5AA8
1656A8
0656A8
005500
ENDCHAR
STARTCHAR Gcommaaccent
ENCODING 290
SWIDTH 908 0
DWIDTH 13 0
BBX 12 18 0 -6
BITMAP
005540
065564
166665
295664
558040
550000
660055
69006A
5A90AA
2556AA
096AAA
0256AA
001540
002A00
001900
000900
001500
001400
ENDCHAR
STARTCHAR gcommaaccent
ENCODING 291
SWIDTH 827 0
DWIDTH 12 0
BBX 11 12 0 -1
BITMAP
001400
066A80
166A60
29A640
559500
6A0000
6A0154
5542A8
1A5AA8
1656A8
0656A8
005500
ENDCHAR
STARTCHAR Hcircumflex
ENCODING 292
SWIDTH 901 0
DWIDTH 13 0
BBX 12 16 0 0
BITMAP
002500
001A00
005A00
005100
000000
6A0055
6A0055
6A0055
6A0055
6A9595
6A9595
6A9595
6A0055
6A0055
6A0055
6A0055
ENDCHAR
STARTCHAR hcircumflex
ENCODING 293
SWIDTH 830 0
DWIDTH 12 0
BBX 11 14 0 0
BITMAP
002400
005400
009900
004500
550154
6A01A8
6A01A8
6A56A8
6AAAA8
6AAAA8
6A02A8
6A01A8
6A01A8
6A01A8
ENDCHAR
STARTCHAR Hbar
ENCODING 294
SWIDTH 901 0
DWIDTH 13 0
BBX 14 12 -1 0
BITMAP
05400400
1A801A80
5A955A90
6A956A90
1A801A80
1AA56A80
1AA56A80
1AA56A80
1A801A80
1A801A80
1A801A80
1A801A80
ENDCHAR
STARTCHAR hbar
ENCODING 295
SWIDTH 830 0
DWIDTH 12 0
BBX 12 10 0 0
BITMAP
550154
6A55A5
AA56A5
6A56A4
6AAAA4
6AAAA4
6A01A4
6A01A4
6A01A4
6A01A4
ENDCHAR
STARTCHAR Itilde
ENCODING 296
SWIDTH 338 0
DWIDTH 5 0
BBX 9 16 -2 0
BITMAP
155000
5AA540
66A600
000000
000000
06A000
06A000
06A000
06A000
06A000
06A000
06A000
06A000
06A000
06A000
06A000
ENDCHAR
STARTCHAR itilde
ENCODING 297
SWIDTH 337 0
DWIDTH 5 0
BBX 9 14 -2 0
BITMAP
155000
5AA540
66A600
000000
055000
06A000
06A000
06A000
06A000
06A000
06A000
06A000
06A000
06A000
ENDCHAR
STARTCHAR Imacron
ENCODING 298
SWIDTH 338 0
DWIDTH 5 0
BBX 4 11 0 0
BITMAP
6A
6A
6A
6A
6A
6A
6A
6A
6A
6A
6A
ENDCHAR
STARTCHAR imacron
ENCODING 299
SWIDTH 337 0
DWIDTH 5 0
BBX 4 10 0 0
BITMAP
55
6A
6A
6A
6A
6A
6A
6A
6A
6A
ENDCHAR
STARTCHAR Ibreve
ENCODING 300
SWIDTH 338 0
DWIDTH 5 0
BBX 5 15 0 0
BITMAP
5140
6900
0000
0000
6A00
6A00
6A00
6A00
6A00
6A00
6A00
6A00
6A00
6A00
6A00
ENDCHAR
STARTCHAR ibreve
ENCODING 301
SWIDTH 337 0
DWIDTH 5 0
BBX 5 13 0 0
BITMAP
5140
6900
0000
5500
6A00
6A00
6A00
6A00
6A00
6A00
6A00
6A00
6A00
ENDCHAR
STARTCHAR Iogonek
ENCODING 302
SWIDTH 338 0
DWIDTH 5 0
BBX 4 15 0 -4
BITMAP
6A
6A
6A
6A
6A
6A
6A
6A
6A
6A
6B
09
15
1A
15
ENDCHAR
STARTCHAR iogonek
ENCODING 303
SWIDTH 337 0
DWIDTH 5 0
BBX 4 14 0 -4
BITMAP
55
6A
6A
6A
6A
6A
6A
6A
6A
6B
09
15
1A
15
ENDCHAR
STARTCHAR Idotaccent
ENCODING 304
SWIDTH 338 0
DWIDTH 5 0
BBX 4 16 0 0
BITMAP
15
19
19
00
00
6A
6A
6A
6A
6A
6A
6A
6A
6A
6A
6A
ENDCHAR
STARTCHAR dotlessi
ENCODING 305
SWIDTH 337 0
DWIDTH 5 0
BBX 4 10 0 0
BITMAP
55
6A
6A
6A
6A
6A
6A
6A
6A
6A
ENDCHAR
STARTCHAR IJ
ENCODING 306
SWIDTH 774 0
DWIDTH 11 0
BBX 11 13 0 -1
BITMAP
000150
6A06A4
6A06A4
6A06A4
6A06A4
6A06A4
6A06A4
6A06A4
6A06A4
6A16A0
6A1650
6A1540
001400
ENDCHAR
STARTCHAR ij
ENCODING 307
SWIDTH 729 0
DWIDTH 10 0
BBX 10 12 0 -2
BITMAP
550550
6A0550
6A0550
6A0550
6A0550
6A0550
6A0550
6A0590
6A1950
6A1580
001600
001400
ENDCHAR
STARTCHAR Jcircumflex
ENCODING 308
SWIDTH 434 0
DWIDTH 6 0
BBX 6 17 0 -1
BITMAP
0640
0940
0550
0450
0140
0A90
0A90
0A90
0A90
0A90
0A90
0A90
0A90
5A50
5580
5600
5400
ENDCHAR
STARTCHAR jcircumflex
ENCODING 309
SWIDTH 393 0
DWIDTH 6 0
BBX 5 16 0 -2
BITMAP
0900
1540
1680
1540
1540
1540
1540
1540
1540
1540
1540
2640
5640
5A00
5900
5000
ENDCHAR
STARTCHAR Kcommaaccent
ENCODING 310
SWIDTH 815 0
DWIDTH 11 0
BBX 11 18 0 -6
BITMAP
000154
6A0168
6A0A54
6A15A0
6A2940
6A5680
6A9540
6A2A80
6A1550
6A0AA0
6A0554
6A02A8
000000
006800
006800
002400
005800
001000
ENDCHAR
STARTCHAR kcommaaccent
ENCODING 311
SWIDTH 801 0
DWIDTH 11 0
BBX 11 16 0 -6
BITMAP
550154
6A0954
6A15A0
6A2940
6A5540
6A5540
6A2A80
6A1550
6A0A90
6A0568
000000
006800
006800
002400
005800
005000
ENDCHAR
STARTCHAR kgreenlandic
ENCODING 312
SWIDTH 801 0
DWIDTH 11 0
BBX 11 10 0 0
BITMAP
550154
6A0954
6A15A0
6A2940
6A5540
6A5540
6A2A80
6A1550
6A0A90
6A0568
ENDCHAR
STARTCHAR Lacute
ENCODING 313
SWIDTH 604 0
DWIDTH 8 0
BBX 9 16 0 0
BITMAP
001940
019900
005000
000000
000000
6A0000
6A0000
6A0000
6A0000
6A0000
6A0000
6A0000
6A0000
6A9500
6AAA00
6AAA00
ENDCHAR
STARTCHAR lacute
ENCODING 314
SWIDTH 583 0
DWIDTH 8 0
BBX 8 14 0 0
BITMAP
0094
1990
0500
0000
5500
6A00
6A00
6A00
6A00
6A00
6A00
6A95
6AA9
6AA9
ENDCHAR
STARTCHAR Lcommaaccent
ENCODING 315
SWIDTH 604 0
DWIDTH 8 0
BBX 8 17 0 -6
BITMAP
6A00
6A00
6A00
6A00
6A00
6A00
6A00
6A00
6A95
6AAA
6AAA
0000
02A0
0190
0050
0150
0100
ENDCHAR
STARTCHAR lcommaaccent
ENCODING 316
SWIDTH 583 0
DWIDTH 8 0
BBX 8 16 0 -6
BITMAP
5500
6A00
6A00
6A00
6A00
6A00
6A00
6A95
6AA9
6AA9
0000
0290
0190
0150
0180
0100
ENDCHAR
STARTCHAR Lcaron
ENCODING 317
SWIDTH 856 0
DWIDTH 12 0
BBX 12 12 0 0
BITMAP
000015
6A0015
6A0015
6A0015
6A0018
6A0000
6A0000
6A0000
6A0000
6A9500
6AAA00
6AAA00
ENDCHAR
STARTCHAR lcaron
ENCODING 318
SWIDTH 584 0
DWIDTH 8 0
BBX 8 11 0 0
BITMAP
0015
5515
6A15
6A15
6A18
6A00
6A00
6A00
6A95
6AA9
6AA9
ENDCHAR
STARTCHAR Ldot
ENCODING 319
SWIDTH 604 0
DWIDTH 8 0
BBX 8 11 0 0
BITMAP
6A00
6A00
6A00
6A00
6A15
6A15
6A15
6A00
6A95
6AAA
6AAA
ENDCHAR
STARTCHAR ldot
ENCODING 320
SWIDTH 582 0
DWIDTH 8 0
BBX 8 10 0 0
BITMAP
5500
6A00
6A15
6A15
6A15
6A00
6A00
6A95
6AA9
6AA9
ENDCHAR
STARTCHAR Lslash
ENCODING 321
SWIDTH 604 0
DWIDTH 8 0
BBX 9 12 -1 0
BITMAP
054000
1A8000
1A8000
1A8500
1A9500
5A9500
5A8000
6A8000
1A8000
1AA540
1AAA80
1AAA80
ENDCHAR
STARTCHAR lslash
ENCODING 322
SWIDTH 581 0
DWIDTH 8 0
BBX 9 10 -1 0
BITMAP
154000
1A8000
1A9500
1A9400
5A9400
5A8000
5A8000
1AA540
1AAA40
1AAA40
ENDCHAR
STARTCHAR Nacute
ENCODING 323
SWIDTH 877 0
DWIDTH 12 0
BBX 12 16 0 0
BITMAP
000194
001990
001900
000000
014000
6A5055
55A055
595455
66A855
655A55
69A555
6A5A95
6A1555
6A0AA5
6A0569
6A0296
ENDCHAR
STARTCHAR nacute
ENCODING 324
SWIDTH 787 0
DWIDTH 11 0
BBX 11 14 0 0
BITMAP
000150
002580
001400
000000
554054
6550A4
5AA0A4
5958A4
66A5A4
695A64
689564
681A94
681564
680AA4
ENDCHAR
STARTCHAR Ncommaaccent
ENCODING 325
SWIDTH 877 0
DWIDTH 12 0
BBX 12 18 0 -6
BITMAP
014000
6A5055
55A055
595455
66A855
655A55
69A555
6A5A95
6A1555
6A0AA5
6A0569
6A0296
000000
002900
001900
001500
001800
001000
ENDCHAR
STARTCHAR ncommaaccent
ENCODING 326
SWIDTH 787 0
DWIDTH 11 0
BBX 11 16 0 -6
BITMAP
554054
6550A4
5AA0A4
5958A4
66A5A4
695A64
689564
681A94
681564
680AA4
000000
00A800
006400
002400
005400
005000
ENDCHAR
STARTCHAR Ncaron
ENCODING 327
SWIDTH 877 0
DWIDTH 12 0
BBX 12 16 0 0
BITMAP
005500
005A00
002500
001400
014000
6A5055
55A055
595455
66A855
655A55
69A555
6A5A95
6A1555
6A0AA5
6A0569
6A0296
ENDCHAR
STARTCHAR ncaron
ENCODING 328
SWIDTH 787 0
DWIDTH 11 0
BBX 11 15 0 0
BITMAP
015500
006400
00A800
005400
000000
554054
6550A4
5AA0A4
5958A4
66A5A4
695A64
689564
681A94
681564
680AA4
ENDCHAR
STARTCHAR Eng
ENCODING 330
SWIDTH 874 0
DWIDTH 12 0
BBX 12 17 0 -5
BITMAP
014000
6A50AA
56A0AA
5954AA
66A5AA
6959AA
69A5AA
6A69AA
6A15AA
6A09AA
6A05AA
6A01AA
0000A9
000595
000698
000560
000540
ENDCHAR
STARTCHAR eng
ENCODING 331
SWIDTH 691 0
DWIDTH 10 0
BBX 9 14 0 -4
BITMAP
554540
655680
5AAA80
595A80
66AA80
695A80
68AA80
681A80
681A80
680A80
000680
001680
001640
001900
ENDCHAR
STARTCHAR Omacron
ENCODING 332
SWIDTH 933 0
DWIDTH 13 0
BBX 13 13 0 -1
BITMAP
00554000
06556400
16666500
29555A00
55809540
55001540
55001540
55001540
5A919940
29959A00
0995A800
02556000
00150000
ENDCHAR
STARTCHAR omacron
ENCODING 333
SWIDTH 833 0
DWIDTH 12 0
BBX 11 12 0 -1
BITMAP
001400
066A40
166A60
29A654
5595A4
6A0154
6A0194
5542A4
1A5654
165660
065580
005500
ENDCHAR
STARTCHAR Obreve
ENCODING 334
SWIDTH 933 0
DWIDTH 13 0
BBX 13 16 0 -1
BITMAP
00514000
002A0000
00000000
00554000
06556400
16666500
29555A00
55809540
55001540
55001540
55001540
5A919940
29959A00
0995A800
02556000
00150000
ENDCHAR
STARTCHAR obreve
ENCODING 335
SWIDTH 833 0
DWIDTH 12 0
BBX 11 14 0 -1
BITMAP
005500
006900
001400
066A40
166A60
29A654
5595A4
6A0154
6A0194
5542A4
1A5654
165660
065580
005500
ENDCHAR
STARTCHAR Ohungarumlaut
ENCODING 336
SWIDTH 933 0
DWIDTH 13 0
BBX 14 17 0 -1
BITMAP
00194650
01996640
01906400
00000000
00554000
06556400
16666500
29555A00
55809540
55001540
55001540
55001540
5A919940
29959A00
0995A800
02556000
00150000
ENDCHAR
STARTCHAR ohungarumlaut
ENCODING 337
SWIDTH 833 0
DWIDTH 12 0
BBX 13 15 0 -1
BITMAP
00650940
06659900
06405000
00140000
066A4000
166A6000
29A65400
5595A400
6A015400
6A019400
5542A400
1A565400
16566000
06558000
00550000
ENDCHAR
STARTCHAR OE
ENCODING 338
SWIDTH 1317 0
DWIDTH 18 0
BBX 18 13 0 -1
BITMAP
0055405550
065659AA90
166669AA90
2955598000
5580994000
5900199500
5500199500
5500199500
5A91994000
2995999550
099559AA90
025569AA90
0015000000
ENDCHAR
STARTCHAR oe
ENCODING 339
SWIDTH 1174 0
DWIDTH 16 0
BBX 16 12 0 -1
BITMAP
00140000
066A1655
16412A55
29426A55
5195A900
69012A55
6A012A55
54426955
19156A55
16152AA9
06552AA9
00550000
ENDCHAR
STARTCHAR Racute
ENCODING 340
SWIDTH 843 0
DWIDTH 12 0
BBX 12 16 0 0
BITMAP
001940
019900
019000
000000
155500
5AAA60
66AA98
69AAA4
6A4155
6A6A55
6A6968
6A6954
6A6AA0
6A0AA0
6A06A4
6A02A4
ENDCHAR
STARTCHAR Rcommaaccent
ENCODING 342
SWIDTH 843 0
DWIDTH 12 0
BBX 12 18 0 -6
BITMAP
155500
5AAA60
66AA98
69AAA4
6A4155
6A6A55
6A6968
6A6954
6A6AA0
6A0AA0
6A06A4
6A02A4
000000
00A800
006400
002400
005400
005000
ENDCHAR
STARTCHAR rcommaaccent
ENCODING 343
SWIDTH 831 0
DWIDTH 12 0
BBX 11 16 0 -6
BITMAP
655540
595554
665568
699694
6A5654
6A5568
6A5564
6A6A90
6A0AA0
6A06A0
000000
00A800
006400
002400
005400
005000
ENDCHAR
STARTCHAR Rcaron
ENCODING 344
SWIDTH 843 0
DWIDTH 12 0
BBX 12 16 0 0
BITMAP
055000
099000
064000
014000
155500
5AAA60
66AA98
69AAA4
6A4155
6A6A55
6A6968
6A6954
6A6AA0
6A0AA0
6A06A4
6A02A4
ENDCHAR
STARTCHAR rcaron
ENCODING 345
SWIDTH 831 0
DWIDTH 12 0
BBX 11 15 0 0
BITMAP
005500
009500
006400
001400
000000
655540
595554
665568
699694
6A5654
6A5568
6A5564
6A6A90
6A0AA0
6A06A0
ENDCHAR
STARTCHAR Sacute
ENCODING 346
SWIDTH 682 0
DWIDTH 10 0
BBX 9 17 0 -1
BITMAP
000640
006640
006400
000000
055500
155980
5A5500
555400
555400
569600
26A940
0A9A40
002640
065A40
165540
655600
055000
ENDCHAR
STARTCHAR sacute
ENCODING 347
SWIDTH 683 0
DWIDTH 10 0
BBX 9 15 0 -1
BITMAP
000640
006640
006400
000000
0AA500
269A40
555900
950000
59AA00
1AA580
015A80
055A40
5AA540
19AA00
004000
ENDCHAR
STARTCHAR Scircumflex
ENCODING 348
SWIDTH 682 0
DWIDTH 10 0
BBX 9 17 0 -1
BITMAP
019000
015000
016400
011400
055500
155980
5A5500
555400
555400
569600
26A940
0A9A40
002640
065A40
165540
655600
055000
ENDCHAR
STARTCHAR scircumflex
ENCODING 349
SWIDTH 683 0
DWIDTH 10 0
BBX 9 15 0 -1
BITMAP
019000
015000
026400
011400
0AA500
269A40
555900
950000
59AA00
1AA580
015A80
055A40
5AA540
19AA00
004000
ENDCHAR
STARTCHAR Scedilla
ENCODING 350
SWIDTH 682 0
DWIDTH 10 0
BBX 9 18 0 -6
BITMAP
055500
155980
5A5500
555400
555400
569600
26A940
0A9A40
002640
065A40
165540
655600
05A000
015000
095000
064000
055000
004000
ENDCHAR
STARTCHAR scedilla
ENCODING 351
SWIDTH 683 0
DWIDTH 10 0
BBX 9 15 0 -5
BITMAP
0AA500
269A40
555900
950000
59AA00
1AA580
015A80
055A40
5AA540
19AA00
02A000
055000
064000
055000
004000
ENDCHAR
STARTCHAR Scaron
ENCODING 352
SWIDTH 682 0
DWIDTH 10 0
BBX 9 17 0 -1
BITMAP
015400
025400
01A000
005000
055500
155980
5A5500
555400
555400
569600
26A940
0A9A40
002640
065A40
165540
655600
055000
ENDCHAR
STARTCHAR scaron
ENCODING 353
SWIDTH 683 0
DWIDTH 10 0
BBX 9 16 0 -1
BITMAP
015400
025400
01A000
005000
000000
0AA500
269A40
555900
950000
59AA00
1AA580
015A80
055A40
5AA540
19AA00
004000
ENDCHAR
STARTCHAR Tcommaaccent
ENCODING 354
SWIDTH 591 0
DWIDTH 8 0
BBX 8 17 0 -5
BITMAP
5555
6AA9
6AA9
0AA0
0550
0550
0550
0550
0550
0550
0550
0690
0640
1640
1540
0940
0140
ENDCHAR
STARTCHAR tcommaaccent
ENCODING 355
SWIDTH 588 0
DWIDTH 8 0
BBX 8 15 0 -5
BITMAP
5555
5555
5AA5
0AA0
0AA0
0AA0
0AA0
0AA0
0AA0
0AA0
0540
1640
1540
0940
0140
ENDCHAR
STARTCHAR Tcaron
ENCODING 356
SWIDTH 591 0
DWIDTH 8 0
BBX 8 16 0 0
BITMAP
0550
05A0
0250
0140
5555
6AA9
6AA9
0AA0
0550
0550
0550
0550
0550
0550
0550
0550
ENDCHAR
STARTCHAR tcaron
ENCODING 357
SWIDTH 842 0
DWIDTH 12 0
BBX 12 11 0 0
BITMAP
000014
555529
555519
5AA525
0AA024
0AA000
0AA000
0AA000
0AA000
0AA000
0AA000
ENDCHAR
STARTCHAR Tbar
ENCODING 358
SWIDTH 591 0
DWIDTH 8 0
BBX 8 12 0 0
BITMAP
5555
6AA9
6AA9
0AA0
0550
5555
5555
6955
0550
0550
0550
0550
ENDCHAR
STARTCHAR tbar
ENCODING 359
SWIDTH 588 0
DWIDTH 8 0
BBX 8 10 0 0
BITMAP
5555
5555
5AA5
0AA0
06A0
66A5
16A5
5AA5
0AA0
0AA0
ENDCHAR
STARTCHAR Utilde
ENCODING 360
SWIDTH 905 0
DWIDTH 13 0
BBX 12 17 0 -1
BITMAP
015510
05AA54
066A60
000000
150000
6A006A
6A006A
6A006A
6A006A
6A006A
6A006A
690059
55816A
255595
096958
025550
005500
ENDCHAR
STARTCHAR utilde
ENCODING 361
SWIDTH 795 0
DWIDTH 11 0
BBX 11 15 0 -1
BITMAP
015400
15A960
15AA90
000000
550154
6A02A8
6A02A8
6A02A8
6A02A8
6602A8
554564
1A5690
165650
055540
005400
ENDCHAR
STARTCHAR Umacron
ENCODING 362
SWIDTH 905 0
DWIDTH 13 0
BBX 12 13 0 -1
BITMAP
150000
6A006A
6A006A
6A006A
6A006A
6A006A
6A006A
690059
55816A
255595
096958
025550
005500
ENDCHAR
STARTCHAR umacron
ENCODING 363
SWIDTH 795 0
DWIDTH 11 0
BBX 11 11 0 -1
BITMAP
550154
6A02A8
6A02A8
6A02A8
6A02A8
6602A8
554564
1A5690
165650
055540
005400
ENDCHAR
STARTCHAR Ubreve
ENCODING 364
SWIDTH 905 0
DWIDTH 13 0
BBX 12 16 0 -1
BITMAP
005140
006900
000000
150000
6A006A
6A006A
6A006A
6A006A
6A006A
6A006A
690059
55816A
255595
096958
025550
005500
ENDCHAR
STARTCHAR ubreve
ENCODING 365
SWIDTH 795 0
DWIDTH 11 0
BBX 11 14 0 -1
BITMAP
014500
006800
000000
550154
6A02A8
6A02A8
6A02A8
6A02A8
6602A8
554564
1A5690
165650
055540
005400
ENDCHAR
STARTCHAR Uring
ENCODING 366
SWIDTH 905 0
DWIDTH 13 0
BBX 12 18 0 -1
BITMAP
001400
006600
005200
002900
000000
150000
6A006A
6A006A
6A006A
6A006A
6A006A
6A006A
690059
55816A
255595
096958
025550
005500
ENDCHAR
STARTCHAR uring
ENCODING 367
SWIDTH 795 0
DWIDTH 11 0
BBX 11 16 0 -1
BITMAP
001400
009800
018500
00A800
000000
550154
6A02A8
6A02A8
6A02A8
6A02A8
6602A8
554564
1A5690
165650
055540
005400
ENDCHAR
STARTCHAR Uhungarumlaut
ENCODING 368
SWIDTH 905 0
DWIDTH 13 0
BBX 13 17 0 -1
BITMAP
00190640
01996640
01906400
00000000
15000000
6A006A00
6A006A00
6A006A00
6A006A00
6A006A00
6A006A00
69005900
55816A00
25559500
09695800
02555000
00550000
ENDCHAR
STARTCHAR uhungarumlaut
ENCODING 369
SWIDTH 795 0
DWIDTH 11 0
BBX 13 15 0 -1
BITMAP
00651940
06659900
06419000
00000000
55015400
6A02A800
6A02A800
6A02A800
6A02A800
6602A800
55456400
1A569000
16565000
05554000
00540000
ENDCHAR
STARTCHAR Uogonek
ENCODING 370
SWIDTH 905 0
DWIDTH 13 0
BBX 12 16 0 -4
BITMAP
150000
6A006A
6A006A
6A006A
6A006A
6A006A
6A006A
690059
55816A
255595
096958
026950
00A900
006000
005400
005400
ENDCHAR
STARTCHAR uogonek
ENCODING 371
SWIDTH 794 0
DWIDTH 11 0
BBX 11 14 0 -4
BITMAP
550154
6A02A8
6A02A8
6A02A8
6A02A8
6602A8
554564
1A5690
165650
05B540
01B400
018000
015000
015000
ENDCHAR
STARTCHAR Ycircumflex
ENCODING 374
SWIDTH 789 0
DWIDTH 11 0
BBX 11 16 0 0
BITMAP
005400
00A800
016500
014500
000000
6A02A4
2A46A0
1A8A90
06AA80
056A40
01AA00
01A900
01A900
01A900
01A900
01A900
ENDCHAR
STARTCHAR ycircumflex
ENCODING 375
SWIDTH 733 0
DWIDTH 10 0
BBX 10 14 0 0
BITMAP
009000
015400
026800
015400
550550
2A4550
1A9540
065640
066A00
016900
02A800
01A800
01A800
01A800
ENDCHAR
STARTCHAR Ydieresis
ENCODING 376
SWIDTH 789 0
DWIDTH 11 0
BBX 11 14 0 0
BITMAP
054540
054540
000000
6A02A4
2A46A0
1A8A90
06AA80
056A40
01AA00
01A900
01A900
01A900
01A900
01A900
ENDCHAR
STARTCHAR Zacute
ENCODING 377
SWIDTH 854 0
DWIDTH 12 0
BBX 12 16 0 0
BITMAP
000194
001990
001900
000000
155554
6AAA59
6AA969
6A9665
001A65
0099A4
069980
266900
566555
5A5AA9
59AAA9
6AAAA9
ENDCHAR
STARTCHAR zacute
ENCODING 378
SWIDTH 714 0
DWIDTH 10 0
BBX 10 14 0 0
BITMAP
000650
006640
006400
000000
6A9550
6A6950
6A9540
016900
029500
056800
0A9400
256550
5A9A90
65AA90
ENDCHAR
STARTCHAR Zdotaccent
ENCODING 379
SWIDTH 854 0
DWIDTH 12 0
BBX 12 16 0 0
BITMAP
001400
002800
002800
000000
155554
6AAA59
6AA969
6A9665
001A65
0099A4
069980
266900
566555
5A5AA9
59AAA9
6AAAA9
ENDCHAR
STARTCHAR zdotaccent
ENCODING 380
SWIDTH 714 0
DWIDTH 10 0
BBX 10 14 0 0
BITMAP
005000
00A000
00A000
000000
6A9550
6A6950
6A9540
016900
029500
056800
0A9400
256550
5A9A90
65AA90
ENDCHAR
STARTCHAR Zcaron
ENCODING 381
SWIDTH 854 0
DWIDTH 12 0
BBX 12 16 0 0
BITMAP
005500
009900
006400
001400
155554
6AAA59
6AA969
6A9665
001A65
0099A4
069980
266900
566555
5A5AA9
59AAA9
6AAAA9
ENDCHAR
STARTCHAR zcaron
ENCODING 382
SWIDTH 714 0
DWIDTH 10 0
BBX 10 15 0 0
BITMAP
015400
016800
009400
005000
000000
6A9550
6A6950
6A9540
016900
029500
056800
0A9400
256550
5A9A90
65AA90
ENDCHAR
STARTCHAR florin
ENCODING 402
SWIDTH 388 0
DWIDTH 5 0
BBX 5 13 0 -1
BITMAP
0640
0940
1540
1900
6A40
6A40
6A40
2A00
2A00
2A00
6A00
6500
6800
ENDCHAR
STARTCHAR uni01C4
ENCODING 452
SWIDTH 1740 0
DWIDTH 24 0
BBX 24 16 0 0
BITMAP
000000005540
000000005A00
000000002900
000000001400
155500155555
5AA9902AAA99
66AA942AA965
69A9A52A9565
6A415A001995
6A00AA005994
6A006A026690
6A00AA166600
6A565619A555
6AAA681996A9
6AAA94296AA9
6AAA903AAAA9
ENDCHAR
STARTCHAR uni01C5
ENCODING 453
SWIDTH 1601 0
DWIDTH 22 0
BBX 22 15 0 0
BITMAP
000000015500
000000006400
00000000A800
155500005400
5AA990000000
66AA942A9550
69A9A52AA5A0
6A415A2A5A40
6A00AA00A540
6A006A015A00
6A00AA02A500
6A5656095800
6AAA6816A550
6AAA94296A90
6AAA90169A90
ENDCHAR
STARTCHAR Scommaaccent
ENCODING 536
SWIDTH 682 0
DWIDTH 10 0
BBX 9 18 0 -6
BITMAP
055500
155980
5A5500
555400
555400
569600
26A940
0A9A40
002640
065A40
165540
655600
055000
02A000
019000
009000
015000
014000
ENDCHAR
STARTCHAR scommaaccent
ENCODING 537
SWIDTH 683 0
DWIDTH 10 0
BBX 9 16 0 -6
BITMAP
0AA500
269A40
555900
950000
59AA00
1AA580
015A80
055A40
5AA540
19AA00
004000
02A000
019000
009000
015000
014000
ENDCHAR
STARTCHAR uni021A
ENCODING 538
SWIDTH 591 0
DWIDTH 8 0
BBX 8 18 0 -6
BITMAP
5555
6AA9
6AA9
0AA0
0550
0550
0550
0550
0550
0550
0550
0550
0000
0290
0190
0150
0180
0100
ENDCHAR
STARTCHAR uni021B
ENCODING 539
SWIDTH 588 0
DWIDTH 8 0
BBX 8 16 0 -6
BITMAP
5555
5555
5AA5
0AA0
0AA0
0AA0
0AA0
0AA0
0AA0
0AA0
0000
0290
0190
0150
0180
0100
ENDCHAR
STARTCHAR uni0237
ENCODING 567
SWIDTH 393 0
DWIDTH 6 0
BBX 5 12 0 -2
BITMAP
1540
1540
1540
1540
1540
1540
1540
2640
5640
5A00
5900
5000
ENDCHAR
STARTCHAR circumflex
ENCODING 710
SWIDTH 376 0
DWIDTH 5 0
BBX 4 4 1 10
BITMAP
54
A8
65
45
ENDCHAR
STARTCHAR caron
ENCODING 711
SWIDTH 362 0
DWIDTH 5 0
BBX 5 4 0 10
BITMAP
5540
1900
2A00
0500
ENDCHAR
STARTCHAR breve
ENCODING 728
SWIDTH 360 0
DWIDTH 5 0
BBX 5 2 0 11
BITMAP
5140
2A00
ENDCHAR
STARTCHAR dotaccent
ENCODING 729
SWIDTH 255 0
DWIDTH 4 0
BBX 3 3 0 9
BITMAP
14
68
68
ENDCHAR
STARTCHAR ring
ENCODING 730
SWIDTH 330 0
DWIDTH 5 0
BBX 4 4 0 11
BITMAP
14
66
52
29
ENDCHAR
STARTCHAR ogonek
ENCODING 731
SWIDTH 250 0
DWIDTH 4 0
BBX 3 5 0 -4
BITMAP
14
54
50
54
54
ENDCHAR
STARTCHAR tilde
ENCODING 732
SWIDTH 665 0
DWIDTH 9 0
BBX 9 3 0 8
BITMAP
055000
26A680
56AA40
ENDCHAR
STARTCHAR hungarumlaut
ENCODING 733
SWIDTH 837 0
DWIDTH 12 0
BBX 10 3 1 10
BITMAP
064190
665990
601900
ENDCHAR
STARTCHAR uni0307
ENCODING 775
SWIDTH 260 0
DWIDTH 4 0
BBX 3 3 0 5
BITMAP
54
54
54
ENDCHAR
STARTCHAR uni030F
ENCODING 783
SWIDTH 554 0
DWIDTH 8 0
BBX 7 5 0 10
BITMAP
54A0
28A0
2854
1528
0514
ENDCHAR
STARTCHAR uni0311
ENCODING 785
SWIDTH 375 0
DWIDTH 5 0
BBX 5 2 0 11
BITMAP
1500
5540
ENDCHAR
STARTCHAR uni0326
ENCODING 806
SWIDTH 274 0
DWIDTH 4 0
BBX 3 5 0 -6
BITMAP
68
68
14
18
10
ENDCHAR
STARTCHAR Omega
ENCODING 937
SWIDTH 92 0
DWIDTH 1 0
BBX 1 1 0 0
BITMAP
00
ENDCHAR
STARTCHAR uni00B5.dup2
ENCODING 956
SWIDTH 802 0
DWIDTH 11 0
BBX 11 12 0 -2
BITMAP
550154
6A02A8
6A02A8
6A02A8
6A02A8
6A02A8
6A0568
6A5654
6A5660
6A6580
6A5400
150000
ENDCHAR
STARTCHAR pi
ENCODING 960
SWIDTH 92 0
DWIDTH 1 0
BBX 1 1 0 0
BITMAP
00
ENDCHAR
STARTCHAR endash
ENCODING 8211
SWIDTH 473 0
DWIDTH 7 0
BBX 6 3 0 4
BITMAP
5550
5550
5550
ENDCHAR
STARTCHAR emdash
ENCODING 8212
SWIDTH 615 0
DWIDTH 9 0
BBX 8 3 0 4
BITMAP
5555
5555
5555
ENDCHAR
STARTCHAR quoteleft
ENCODING 8216
SWIDTH 254 0
DWIDTH 4 0
BBX 3 5 0 7
BITMAP
04
24
54
64
68
ENDCHAR
STARTCHAR quoteright
ENCODING 8217
SWIDTH 251 0
DWIDTH 4 0
BBX 3 4 0 7
BITMAP
68
58
68
64
ENDCHAR
STARTCHAR quotesinglbase
ENCODING 8218
SWIDTH 252 0
DWIDTH 4 0
BBX 3 5 0 -2
BITMAP
54
68
58
68
64
ENDCHAR
STARTCHAR quotedblleft
ENCODING 8220
SWIDTH 535 0
DWIDTH 8 0
BBX 7 5 0 7
BITMAP
0404
2464
5454
64A4
68A8
ENDCHAR
STARTCHAR quotedblright
ENCODING 8221
SWIDTH 532 0
DWIDTH 7 0
BBX 7 4 0 7
BITMAP
6854
5854
6868
6464
ENDCHAR
STARTCHAR quotedblbase
ENCODING 8222
SWIDTH 533 0
DWIDTH 7 0
BBX 7 5 0 -2
BITMAP
5454
68A8
5854
6858
6464
ENDCHAR
STARTCHAR dagger
ENCODING 8224
SWIDTH 636 0
DWIDTH 9 0
BBX 9 12 0 0
BITMAP
015000
06A400
06A400
6AAA40
6AAA40
5AA940
06A400
06A400
06A400
06A400
06A400
06A400
ENDCHAR
STARTCHAR daggerdbl
ENCODING 8225
SWIDTH 648 0
DWIDTH 9 0
BBX 9 11 0 0
BITMAP
02A400
06A400
6AAA40
6AAA40
16A940
02A400
5AA940
5AA940
5AA940
02A400
02A400
ENDCHAR
STARTCHAR bullet
ENCODING 8226
SWIDTH 501 0
DWIDTH 7 0
BBX 7 6 0 2
BITMAP
1990
29A0
5014
5014
1994
1A90
ENDCHAR
STARTCHAR ellipsis
ENCODING 8230
SWIDTH 676 0
DWIDTH 9 0
BBX 9 3 0 0
BITMAP
555540
699640
699640
ENDCHAR
STARTCHAR perthousand
ENCODING 8240
SWIDTH 447 0
DWIDTH 6 0
BBX 6 13 0 -2
BITMAP
02A0
0190
0590
0680
0A80
0640
1640
1A00
2A00
1900
5900
6800
1400
ENDCHAR
STARTCHAR guilsinglleft
ENCODING 8249
SWIDTH 465 0
DWIDTH 7 0
BBX 6 7 0 2
BITMAP
0010
0690
6690
6590
6950
2990
0190
ENDCHAR
STARTCHAR guilsinglright
ENCODING 8250
SWIDTH 465 0
DWIDTH 7 0
BBX 6 7 0 2
BITMAP
5000
5900
5960
19A0
26A0
6990
6900
ENDCHAR
STARTCHAR fraction
ENCODING 8260
SWIDTH 447 0
DWIDTH 6 0
BBX 6 13 0 -2
BITMAP
02A0
0190
0590
0680
0A80
0640
1640
1A00
2A00
1900
5900
6800
1400
ENDCHAR
STARTCHAR uni2074
ENCODING 8308
SWIDTH 528 0
DWIDTH 7 0
BBX 7 9 0 2
BITMAP
0950
0A80
2540
2A54
5554
6AA4
6AA4
1564
0054
ENDCHAR
STARTCHAR Euro
ENCODING 8364
SWIDTH 781 0
DWIDTH 11 0
BBX 11 13 0 -1
BITMAP
001554
019964
059950
0A5950
156000
6A9500
2A9500
6A5500
156400
0A5550
02A550
009594
000550
ENDCHAR
STARTCHAR trademark
ENCODING 8482
SWIDTH 1503 0
DWIDTH 21 0
BBX 21 9 0 3
BITMAP
555505000000
6AA969002A40
6AA965405640
06905A40A940
029065A15540
02906696A640
029069695A40
029069958A40
0290692A4A40
ENDCHAR
STARTCHAR partialdiff
ENCODING 8706
SWIDTH 108 0
DWIDTH 2 0
BBX 1 1 0 0
BITMAP
00
ENDCHAR
STARTCHAR uni2206
ENCODING 8710
SWIDTH 108 0
DWIDTH 2 0
BBX 1 1 0 0
BITMAP
00
ENDCHAR
STARTCHAR product
ENCODING 8719
SWIDTH 521 0
DWIDTH 7 0
BBX 7 10 0 0
BITMAP
0940
1550
26A0
1A54
55A8
55A8
1A54
2A60
1550
0A90
ENDCHAR
STARTCHAR summation
ENCODING 8721
SWIDTH 108 0
DWIDTH 2 0
BBX 1 1 0 0
BITMAP
00
ENDCHAR
STARTCHAR minus
ENCODING 8722
SWIDTH 555 0
DWIDTH 8 0
BBX 7 3 0 5
BITMAP
1554
6AA8
6AA8
ENDCHAR
STARTCHAR radical
ENCODING 8730
SWIDTH 108 0
DWIDTH 2 0
BBX 1 1 0 0
BITMAP
00
ENDCHAR
STARTCHAR infinity
ENCODING 8734
SWIDTH 108 0
DWIDTH 2 0
BBX 1 1 0 0
BITMAP
00
ENDCHAR
STARTCHAR integral
ENCODING 8747
SWIDTH 362 0
DWIDTH 5 0
BBX 5 13 0 -1
BITMAP
0540
1640
2940
1900
2A00
2A00
2A00
2A00
2A00
2A00
6A00
6500
6400
ENDCHAR
STARTCHAR approxequal
ENCODING 8776
SWIDTH 665 0
DWIDTH 9 0
BBX 9 7 0 4
BITMAP
055000
26A680
56AA40
000000
055000
26A680
56AA40
ENDCHAR
STARTCHAR notequal
ENCODING 8800
SWIDTH 473 0
DWIDTH 7 0
BBX 6 13 0 -2
BITMAP
02A0
0190
1BE0
6FE0
6FE0
0A80
6F90
7FA0
7FA0
2A00
5900
6800
1400
ENDCHAR
STARTCHAR lessequal
ENCODING 8804
SWIDTH 108 0
DWIDTH 2 0
BBX 1 1 0 0
BITMAP
00
ENDCHAR
STARTCHAR greaterequal
ENCODING 8805
SWIDTH 108 0
DWIDTH 2 0
BBX 1 1 0 0
BITMAP
00
ENDCHAR
STARTCHAR lozenge
ENCODING 9674
SWIDTH 521 0
DWIDTH 7 0
BBX 7 10 0 0
BITMAP
0940
1550
26A0
1A54
55A8
55A8
1A54
2A60
1550
0A90
ENDCHAR
STARTCHAR uniF8FF
ENCODING 63743
SWIDTH 108 0
DWIDTH 2 0
BBX 1 1 0 0
BITMAP
00
ENDCHAR
STARTCHAR uniFB01
ENCODING 64257
SWIDTH 962 0
DWIDTH 13 0
BBX 13 10 0 0
BITMAP
55951540
6A951540
6A951540
6A001540
6A951540
6A951540
6A951540
6A001540
6A001540
6A001540
ENDCHAR
STARTCHAR uniFB02
ENCODING 64258
SWIDTH 1208 0
DWIDTH 17 0
BBX 17 10 0 0
BITMAP
5595154000
6A95154000
6A95154000
6A00154000
6A95154000
6A95154000
6A95154000
6A00159540
6A0015AA40
6A0015AA40
ENDCHAR
STARTCHAR .notdef
ENCODING -1
SWIDTH 108 0
DWIDTH 2 0
BBX 1 1 0 0
BITMAP
00
ENDCHAR
ENDFONT
